<svg width="145" height="41" viewBox="0 0 145 41" fill="none" xmlns="http://www.w3.org/2000/svg">
<g clip-path="url(#clip0_32_1070)">
<path d="M12.2137 31.5175L8.39689 30.4997C8.29511 30.4488 8.24422 30.2961 8.39689 30.2452L16.2849 28.4132C16.3867 28.3623 16.5394 28.5149 16.4376 28.6167L13.2315 36.0976C13.1806 36.1994 12.977 36.1485 12.977 36.0468L12.6717 32.1282C12.6717 31.8228 12.4681 31.5684 12.2137 31.5175Z" fill="#E5A93F"/>
<path d="M50.4327 0.830551H48.6007C47.5829 0.830551 46.7686 1.6448 46.7686 2.66261V38.9476C46.7686 39.9654 47.5829 40.7797 48.6007 40.7797H50.4327C51.4505 40.7797 52.2648 39.9654 52.2648 38.9476V2.66261C52.2648 1.6448 51.4505 0.830551 50.4327 0.830551Z" fill="white"/>
<path d="M41.3233 37.1156H40.051C37.9136 37.1156 36.1324 35.3853 36.1324 33.197V21.136H41.3233C42.3411 21.136 43.1553 20.3217 43.1553 19.3039C43.1553 18.2861 42.3411 17.4719 41.3233 17.4719H36.1324V13.1971C36.1324 11.6703 34.9619 10.3981 33.4352 10.3472C31.9085 10.2963 30.6362 11.5686 30.6362 13.0953V32.0266C30.6362 36.8612 34.5548 40.7797 39.3894 40.7797H41.2724C42.2902 40.7797 43.1044 39.9655 43.1044 38.9477C43.1553 37.9299 42.3411 37.1156 41.3233 37.1156Z" fill="white"/>
<path d="M26.9721 37.1662C26.8703 36.6064 18.0153 12.3825 17.9644 12.2298C17.5573 11.1611 16.7431 10.3978 15.6235 10.3978H11.7049C10.5853 10.3978 9.61838 11.1611 9.36393 12.1789C9.26215 12.4334 0.203623 38.0314 0.101842 38.4385C0.0509516 38.642 6.10352e-05 38.7947 6.10352e-05 38.9983C6.10352e-05 40.0161 0.81431 40.8303 1.83212 40.8303C2.29014 40.8303 2.69726 40.6777 3.00261 40.4232C3.30795 40.1688 10.8398 33.8074 10.8906 33.7057C10.9924 33.6039 11.0433 33.4512 11.0433 33.2985C11.0433 32.9423 10.7889 32.6878 10.4326 32.6878C10.3308 32.6878 10.28 32.6878 10.1782 32.7387C10.1273 32.7387 5.1909 35.385 5.1909 35.385L13.2316 15.3342H13.7914C14.1476 16.6573 20.9161 38.5403 21.0179 38.8456C21.425 40.0161 22.5446 40.8303 23.8677 40.8303C25.5471 40.8303 26.9212 39.4563 26.9212 37.7769C27.023 37.5733 27.023 37.3698 26.9721 37.1662Z" fill="white"/>
<path d="M101.119 20.932C101.781 20.2704 101.679 19.1509 100.916 18.5911C99.5419 17.5732 97.0482 16.2501 93.4859 16.2501C86.8192 16.2501 84.2747 20.2196 84.2747 23.6801C84.2747 27.1407 86.9719 29.2781 91.1449 30.245C94.0457 30.9066 96.1831 31.3137 96.4884 33.6038C96.7938 36.0974 92.2645 38.8455 86.5648 35.5376C85.9032 35.1814 85.1398 35.2323 84.5291 35.6903C83.664 36.4537 83.7149 37.8277 84.6818 38.4893C86.2085 39.558 88.8548 40.8302 92.6207 40.8302C99.1347 40.8302 102.188 37.4206 102.188 33.4511C102.188 29.4816 98.6767 26.5809 94.0966 26.0211C91.094 25.6649 89.8726 24.7488 89.6691 23.1203C89.3128 20.1178 94.7072 18.0313 99.0838 21.1356C99.6945 21.5936 100.56 21.4918 101.119 20.932Z" fill="white"/>
<path d="M77.5062 16.4028C75.9795 16.4028 74.7582 17.6242 74.7582 19.1509C72.7734 17.4206 70.2289 16.4028 67.4299 16.4028C61.0686 16.4028 55.8777 21.8481 55.8777 28.5657C55.8777 35.2832 61.0686 40.7285 67.4299 40.7285C70.178 40.7285 72.7225 39.7107 74.7582 37.9804C74.7582 39.5071 75.9795 40.7285 77.5062 40.7285C79.033 40.7285 80.2543 39.5071 80.2543 37.9804V19.1509C80.2034 17.6751 78.9821 16.4028 77.5062 16.4028ZM68.6513 36.1484C64.6818 36.1484 61.4757 32.7896 61.4757 28.6166C61.4757 24.4435 64.6818 21.0847 68.6513 21.0847C72.6207 21.0847 75.8269 24.4435 75.8269 28.6166C75.8269 32.7387 72.6207 36.1484 68.6513 36.1484Z" fill="white"/>
<path d="M125.852 16.2508C121.374 16.2508 118.778 18.5409 118.778 22.5612V33.7572C118.778 37.9811 121.628 40.831 125.852 40.831C130.076 40.831 132.926 37.9811 132.926 33.7572V22.5612C132.875 18.5409 130.33 16.2508 125.852 16.2508ZM130.076 22.5612V33.7572C130.076 35.1312 129.771 39.6096 125.852 39.6096C121.934 39.6096 121.628 35.1312 121.628 33.7572V22.5612C121.628 19.1516 123.053 17.4213 125.852 17.4213C128.651 17.4722 130.076 19.2025 130.076 22.5612Z" fill="#E5A93F"/>
<path d="M143.613 39.6096H142.29C142.137 39.6096 142.035 39.5078 142.035 39.3551V16.8615C142.035 16.5053 141.781 16.2508 141.425 16.2508H139.745C139.643 16.2508 139.542 16.2508 139.44 16.3017L137.201 17.5231C136.946 17.6757 136.794 17.9811 136.895 18.2355C136.997 18.5918 137.455 18.7953 137.76 18.5918L139.389 17.7266V39.406C139.389 39.5587 139.287 39.6605 139.134 39.6605H137.76C137.455 39.6605 137.15 39.864 137.15 40.2203C137.099 40.5765 137.404 40.8819 137.76 40.8819H143.715C144.071 40.8819 144.376 40.5765 144.325 40.2203C144.224 39.864 143.918 39.6096 143.613 39.6096Z" fill="#E5A93F"/>
<path d="M114.351 39.6096H112.977C112.824 39.6096 112.722 39.5078 112.722 39.3551V16.8615C112.722 16.5053 112.468 16.2508 112.112 16.2508H110.432C110.331 16.2508 110.229 16.2508 110.127 16.3017L107.888 17.5231C107.633 17.6757 107.481 17.9811 107.582 18.2355C107.684 18.5918 108.091 18.7953 108.448 18.5918L110.076 17.7266V39.406C110.076 39.5587 109.974 39.6605 109.822 39.6605H108.448C108.142 39.6605 107.837 39.864 107.837 40.2203C107.786 40.5765 108.091 40.8819 108.448 40.8819H114.402C114.758 40.8819 115.063 40.5765 115.013 40.2203C114.962 39.864 114.656 39.6096 114.351 39.6096Z" fill="#E5A93F"/>
</g>
<defs>
<clipPath id="clip0_32_1070">
<rect width="144.275" height="40" fill="white" transform="translate(0 0.831741)"/>
</clipPath>
</defs>
</svg>
