<svg width="590" height="121" viewBox="0 0 590 121" fill="none" xmlns="http://www.w3.org/2000/svg">
<path d="M113.28 59.6281C113.28 87.046 91.0572 109.271 63.641 109.271C36.2264 109.271 14.0018 87.046 14.0018 59.6281C14.0018 32.2167 36.2264 10.0017 63.641 10.0017C91.0572 10.0001 113.28 32.2167 113.28 59.6281Z" fill="white"/>
<path d="M63.5865 109.27V107.531H63.6264C90.0526 107.531 111.499 86.118 111.538 59.6711V59.628C111.538 33.1987 90.1164 11.7646 63.6408 11.7407H63.6264C37.1907 11.7407 15.7742 33.138 15.7359 59.6504C15.747 86.0765 37.1444 107.495 63.5865 107.531V108.405L63.5753 109.27C36.1703 109.238 14 87.0219 14 59.628C14 59.5594 14.008 59.5035 14 59.5785C14.0256 32.1783 36.2278 10 63.6264 10H63.6823C91.073 10.0208 113.28 32.2406 113.28 59.628V59.6711C113.24 87.073 91.0171 109.27 63.6264 109.27H63.5865V109.27Z" fill="#51318F"/>
<path d="M55.6578 98.2373L59.3611 98.8569L59.2557 99.3919L57.7274 99.146L57.0423 103.14L56.4355 103.036L57.1126 99.0469L55.5715 98.7707L55.6578 98.2373Z" fill="black"/>
<path d="M59.3261 101.118C59.4187 100.323 59.9776 100.055 60.8 100.126C61.0763 100.154 62.0393 100.307 61.9738 101.16L61.8093 103.092L61.9786 103.298L62.1686 103.28L62.1271 103.713L61.8093 103.743C61.3095 103.713 61.2663 103.443 61.2663 103.189C61.0332 103.403 60.6595 103.681 60.0143 103.622C59.3931 103.574 58.9955 103.148 59.0386 102.579C59.0578 102.308 59.2047 101.64 60.1453 101.607L61.0827 101.581L61.4085 101.192C61.4372 100.851 61.2009 100.649 60.6691 100.577C60.0319 100.542 59.9074 100.92 59.8483 101.163L59.3261 101.118V101.118ZM61.3382 101.925C61.2408 101.984 61.1019 102.025 60.3912 102.052C60.1197 102.065 59.6662 102.105 59.6263 102.533C59.5928 102.9 59.7572 103.145 60.1852 103.172C60.7058 103.207 61.2568 102.913 61.2903 102.464L61.3382 101.925V101.925Z" fill="black"/>
<path d="M63.2705 103.713H62.6972L62.7994 100.344L63.3679 100.353L63.2705 103.713V103.713ZM62.8138 99.7287L62.8409 99.0947L63.4046 99.1075L63.3775 99.7511L62.8138 99.7287Z" fill="black"/>
<path d="M63.8835 100.39H64.4201L64.4409 100.855C64.5734 100.655 64.813 100.272 65.4358 100.262C66.3332 100.246 66.8586 100.963 66.8682 101.894C66.9002 102.71 66.5872 103.79 65.4358 103.806C64.987 103.825 64.69 103.616 64.5287 103.392H64.5175L64.5638 105.069L63.9921 105.082L63.8835 100.39V100.39ZM65.4134 103.332C66.0346 103.303 66.3157 102.755 66.2917 101.996C66.2853 101.578 66.2215 100.76 65.3384 100.765C64.5271 100.799 64.4632 101.671 64.4776 102.209C64.4888 103.108 65.0573 103.332 65.4134 103.332" fill="black"/>
<path d="M70.3656 102.306C70.3656 102.46 70.2538 102.961 69.8594 103.284C69.7172 103.397 69.5096 103.549 68.9667 103.584C68.0325 103.681 67.4001 103.034 67.3091 102.076C67.1989 101.037 67.6109 100.158 68.716 100.047C69.6949 99.9459 70.2458 100.681 70.3672 101.849L67.9223 102.099C67.9894 102.795 68.3582 103.162 69.0114 103.116C69.5336 103.057 69.8035 102.61 69.8019 102.354L70.3656 102.306V102.306ZM69.7284 101.46C69.6502 100.958 69.3707 100.486 68.6936 100.559C68.1746 100.61 67.8153 101.14 67.868 101.642L69.7284 101.46V101.46Z" fill="black"/>
<path d="M71.0954 99.2018L71.006 98.5806L70.4359 98.6588L70.5381 99.3008L71.0954 99.2018V99.2018ZM71.1976 99.8134L70.6275 99.9156L71.1625 103.218L71.7278 103.137L71.1976 99.8134V99.8134Z" fill="black"/>
<path d="M63.6027 96.3592V95.4793H63.6362C83.4111 95.4793 99.4603 79.4604 99.4874 59.6648V59.6296C99.4874 39.8452 83.4542 23.8119 63.649 23.7864H63.6266C43.8421 23.7864 27.8073 39.8037 27.7945 59.6424C27.7945 79.4285 43.8054 95.4633 63.6027 95.4793V95.9232L63.5947 96.3592C43.3199 96.3289 26.9146 79.8948 26.9146 59.6392C26.9146 59.5865 26.9226 59.5594 26.9226 59.5865C26.937 39.3246 43.3663 22.9128 63.6266 22.9128H63.6745C83.9365 22.9352 100.364 39.3661 100.364 59.628V59.6616C100.331 79.9331 83.8997 96.3592 63.6362 96.3592H63.6027V96.3592ZM63.6745 22.9128H63.6793H63.6745Z" fill="#51318F"/>
<path d="M35.1978 96.3959L31.9832 93.6444L32.5996 92.9146L35.0397 94.9986L36.1097 93.7338L33.8628 91.8095L34.4489 91.1228L36.6926 93.0455L37.8982 91.6355L35.4262 89.5227L36.0458 88.7849L39.3004 91.57L35.1978 96.3959Z" fill="#51318F"/>
<path d="M32.1222 91.3161L31.5265 90.6598L32.0231 90.2079L32.0295 90.1823C31.4594 90.3181 30.9053 90.1584 30.53 89.7495C29.9072 89.0661 29.9072 88.2772 30.6785 87.5873L33.0005 85.465L33.6329 86.1644L31.4994 88.0951C30.9803 88.595 30.9261 88.999 31.2965 89.4078C31.7149 89.8725 32.3809 89.8102 32.8823 89.3519L34.8833 87.5426L35.5093 88.2293L32.1222 91.3161V91.3161Z" fill="#51318F"/>
<path d="M29.845 81.5557C30.9644 80.7668 31.9529 80.9792 32.7259 82.0763C33.2129 82.7742 33.486 83.7675 32.6652 84.4525L32.111 83.686C32.5183 83.2628 32.3538 82.854 32.0791 82.4612C31.6399 81.8416 31.105 81.8144 30.4886 82.2424L29.9232 82.6528L29.9312 82.664C30.4949 82.5857 31.0235 82.8045 31.3222 83.2357C32.1047 84.3344 31.5329 85.4347 30.4614 86.1916C29.4553 86.9038 28.1778 86.9358 27.4847 85.9473C27.1733 85.5129 27.0871 84.9763 27.3713 84.4813L27.3617 84.4669L26.8459 84.8294L26.3078 84.0725L29.845 81.5557V81.5557ZM28.6313 83.563C27.9846 84.0182 27.5885 84.7128 28.0564 85.3756C28.5403 86.0591 29.3803 85.8067 30.0031 85.3692C30.6179 84.9316 31.0395 84.2178 30.5908 83.5726C30.1117 82.9019 29.2669 83.1143 28.6313 83.563Z" fill="#51318F"/>
<path d="M23.5971 82.9257L24.0697 83.7352L29.5393 80.5419L29.0666 79.7324L23.5971 82.9257Z" fill="#51318F"/>
<path d="M22.9382 81.7377L22.499 80.9009L23.3534 80.4537L23.783 81.2953L22.9382 81.7377ZM24.484 80.9296L24.056 80.0896L28.1218 77.9817L28.5642 78.8105L24.484 80.9296V80.9296Z" fill="#51318F"/>
<path d="M25.9932 76.9227C26.5154 76.6496 26.549 76.1913 26.3509 75.717C26.2152 75.3992 25.9022 74.8611 25.4311 75.0846C24.952 75.3162 25.158 75.9709 25.2682 76.6688C25.3896 77.3651 25.4103 78.0917 24.5528 78.4494C23.6282 78.8422 22.9511 78.0278 22.6556 77.3188C22.3171 76.5091 22.3666 75.6292 23.2625 75.1325L23.6377 76.0316C23.2321 76.2967 23.2529 76.6991 23.4158 77.0664C23.518 77.3204 23.7815 77.7531 24.1392 77.6014C24.6039 77.4098 24.4043 76.7423 24.2845 76.0396C24.1743 75.3402 24.1504 74.6088 24.9824 74.2462C25.9868 73.8278 26.7534 74.6119 27.0903 75.4184C27.5071 76.4133 27.341 77.3523 26.3509 77.7803L25.9932 76.9227V76.9227Z" fill="#51318F"/>
<path d="M19.9296 74.8308L19.6629 73.9318L21.921 73.2706L21.9114 73.2515C21.4435 73.1509 21.0107 72.7676 20.8558 72.2214C20.5955 71.3431 20.9421 70.6325 21.929 70.3466L24.9456 69.4587L25.2139 70.3578L22.4464 71.1723C21.7613 71.3831 21.5409 71.7344 21.6942 72.2614C21.8731 72.865 22.4943 73.095 23.1426 72.9081L25.7377 72.1432L25.998 73.0455L19.9296 74.8308V74.8308Z" fill="#51318F"/>
<path d="M17.9845 66.6642L17.8807 65.639L23.2225 65.0721L22.9095 62.0906L23.8708 61.9916L24.2764 65.9903L17.9845 66.6642Z" fill="#51318F"/>
<path d="M22.8951 57.8395C23.1426 57.8442 23.2432 57.7915 23.2432 57.6287C23.2432 57.5648 23.2432 57.4961 23.232 57.3955L23.9363 57.4131C23.9842 57.5488 24.0369 57.8411 24.0353 57.9992C24.0305 58.3776 23.8804 58.6427 23.4684 58.721C23.8549 59.0883 24.0066 59.6935 23.9954 60.1949C23.9794 60.9615 23.5259 61.6434 22.6332 61.6258C21.485 61.605 21.3125 60.7571 21.2295 59.965C21.1113 59.2815 21.2055 58.6906 20.6115 58.6794C20.0845 58.6635 19.9775 59.1665 19.9695 59.5514C19.9615 60.0688 20.1867 60.4489 20.6738 60.4968L20.6594 61.4342C19.4776 61.3447 19.1535 60.4073 19.1694 59.4699C19.1918 58.6395 19.5671 57.7724 20.5332 57.7947L22.8951 57.8395V57.8395ZM21.6032 58.7513C21.8028 59.0436 21.782 59.5019 21.8475 59.9059C21.9194 60.3179 22.0711 60.6756 22.6029 60.6852C23.0564 60.69 23.2001 60.1614 23.2065 59.8356C23.2113 59.4268 22.9941 58.7737 22.3505 58.7593L21.6032 58.7513V58.7513Z" fill="#51318F"/>
<path d="M19.4232 56.2169L19.5398 55.3338L20.201 55.42L20.2233 55.4088C19.757 55.0687 19.5111 54.5465 19.5829 53.9859C19.6963 53.0773 20.2984 52.5711 21.314 52.6972L24.4312 53.0948L24.3211 54.0227L21.4625 53.6602C20.7519 53.5851 20.4086 53.8071 20.3383 54.3452C20.2553 54.9776 20.7423 55.4408 21.405 55.5238L24.0831 55.8655L23.9713 56.7949L19.4232 56.2169V56.2169Z" fill="#51318F"/>
<path d="M25.3719 48.2082C26.699 48.5483 27.1749 49.441 26.8395 50.7409C26.6319 51.5649 26.0522 52.4129 24.9919 52.2276L25.2282 51.319C25.8127 51.3493 26.0107 50.9581 26.1289 50.4998C26.3157 49.7636 25.9947 49.3356 25.2634 49.1472L24.5831 48.9747L24.5799 48.9938C25.0094 49.3755 25.1771 49.9201 25.0526 50.4343C24.7156 51.7358 23.5163 52.0073 22.2419 51.6815C21.0442 51.3765 20.1915 50.4151 20.4917 49.2494C20.6211 48.7304 20.9772 48.3136 21.5313 48.2193L21.5361 48.205L20.9213 48.0469L21.1544 47.135L25.3719 48.2082V48.2082ZM23.0468 48.5882C22.2819 48.3918 21.4994 48.5323 21.2934 49.3212C21.0937 50.1261 21.8299 50.6083 22.5629 50.7952C23.2959 50.9868 24.1136 50.8415 24.3084 50.0893C24.5208 49.2797 23.8085 48.7767 23.0468 48.5882" fill="#51318F"/>
<path d="M27.2866 43.8072L26.9481 44.6648L26.354 44.4332L26.3444 44.446C26.6989 44.8293 26.7836 45.4106 26.6191 45.8465C26.2135 46.8813 25.4725 47.1113 24.3626 46.6753L21.6526 45.6182L21.9944 44.7446L24.6149 45.7699C25.3655 46.0653 25.7488 45.8896 25.9388 45.409C26.2231 44.6776 25.8142 44.2304 25.1547 43.9845L22.6747 43.0088L23.0228 42.1384L27.2866 43.8072V43.8072Z" fill="#51318F"/>
<path d="M28.4843 39.2816C28.6967 39.403 28.8164 39.403 28.8947 39.2592C28.9234 39.2001 28.957 39.1331 28.9873 39.0373L29.6037 39.3758C29.5846 39.5211 29.5015 39.8134 29.4265 39.9459C29.2492 40.2861 28.9921 40.4585 28.5881 40.3212C28.7637 40.8306 28.628 41.4406 28.3932 41.8878C28.0323 42.5617 27.3153 42.9625 26.5264 42.533C25.5188 41.9948 25.7535 41.166 26.041 40.4154C26.2406 39.7607 26.5919 39.2752 26.0745 38.9909C25.6082 38.7402 25.2856 39.1331 25.1147 39.4748C24.8544 39.9315 24.8864 40.3675 25.3032 40.6422L24.864 41.4726C23.8595 40.8562 23.9905 39.8645 24.4312 39.0405C24.8241 38.3138 25.5539 37.7198 26.4115 38.1733L28.4843 39.2816V39.2816ZM26.9177 39.5052C26.9624 39.8597 26.742 40.2525 26.6175 40.655C26.4897 41.0382 26.4626 41.4327 26.9305 41.6914C27.3249 41.8958 27.6922 41.4917 27.8487 41.2043C28.0435 40.8386 28.1489 40.1711 27.5772 39.8597L26.9177 39.5052V39.5052Z" fill="#51318F"/>
<path d="M32.0023 35.4712C33.133 36.2633 33.2575 37.2678 32.4894 38.3697C32.0007 39.0707 31.1559 39.6616 30.2313 39.1059L30.7679 38.3409C31.3013 38.5757 31.6334 38.2787 31.9065 37.881C32.3409 37.2662 32.1892 36.7472 31.5775 36.3144L30.9978 35.9152L30.9883 35.9232C31.2518 36.4342 31.223 37.0059 30.9164 37.445C30.1387 38.5405 28.9266 38.3729 27.8519 37.6111C26.8458 36.9053 26.3859 35.7108 27.0822 34.7143C27.3872 34.2831 27.8615 34.018 28.4172 34.1218L28.4284 34.1059L27.9142 33.7449L28.4491 32.9752L32.0023 35.4712V35.4712ZM29.7075 35.0001C29.0608 34.5482 28.2751 34.4013 27.8088 35.0672C27.3345 35.7507 27.8519 36.4645 28.4747 36.9037C29.0863 37.3349 29.9023 37.5025 30.3511 36.8558C30.8286 36.1755 30.3415 35.4537 29.7075 35.0001Z" fill="#51318F"/>
<path d="M31.8076 32.9465C32.3458 33.4239 33.0612 33.5789 33.5818 32.9928C33.9491 32.5887 33.9715 32.1735 33.7096 31.7168L34.302 31.0541C34.9105 31.8749 34.8003 32.8347 34.1775 33.5262C33.2864 34.5163 32.0456 34.4093 30.99 33.4687C30.0254 32.5999 29.7236 31.2633 30.57 30.3211C31.4595 29.3278 32.9798 29.5769 33.8996 30.6054L31.8076 32.9465V32.9465ZM32.7833 30.872C32.2803 30.4696 31.5856 30.3866 31.1672 30.8593C30.7281 31.3415 30.8271 32.0282 31.3221 32.4945L32.7833 30.872Z" fill="#51318F"/>
<path d="M33.7352 24.9568L34.5161 24.2925L38.5803 29.1599L37.793 29.8259L33.7352 24.9568Z" fill="#51318F"/>
<path d="M36.9051 24.6279L37.6381 24.1185L38.0181 24.6662L38.0405 24.6678C37.9846 24.0929 38.2098 23.5723 38.6697 23.2498C39.4266 22.7244 40.2139 22.8314 40.7968 23.6761L42.5838 26.2568L41.8124 26.7886L40.174 24.4267C39.7572 23.847 39.3596 23.74 38.9044 24.0578C38.3934 24.4139 38.3599 25.0751 38.7431 25.6372L40.2762 27.8537L39.5001 28.3823L36.9051 24.6279V24.6279Z" fill="#51318F"/>
<path d="M43.3565 24.1297C43.6775 24.6279 44.139 24.62 44.575 24.3724C44.8928 24.2111 45.3974 23.8582 45.1291 23.4015C44.8592 22.94 44.23 23.2131 43.5449 23.3775C42.8614 23.5708 42.1428 23.6554 41.7005 22.8298C41.2262 21.9467 41.9672 21.2041 42.6459 20.8416C43.4108 20.4216 44.2955 20.4008 44.8752 21.2408L44.0192 21.7039C43.7174 21.3175 43.3246 21.3798 42.9652 21.5698C42.7273 21.7039 42.3185 21.9962 42.5053 22.3555C42.7401 22.7899 43.3773 22.5328 44.0735 22.3395C44.749 22.1766 45.4868 22.0808 45.9148 22.8761C46.429 23.8454 45.72 24.6663 44.9423 25.0895C44.0001 25.5909 43.0483 25.5158 42.5229 24.5657L43.3565 24.1297V24.1297Z" fill="#51318F"/>
<path d="M45.0861 19.7398L45.7344 19.4619L45.1994 18.1971L46.0634 17.8314L46.6031 19.0994L47.3777 18.7624L47.6731 19.4555L46.8922 19.7877L47.8504 22.0394C48.0164 22.4226 48.125 22.6079 48.5131 22.4402C48.6297 22.3875 48.7542 22.338 48.8612 22.2517L49.1614 22.972C48.989 23.0742 48.8149 23.1748 48.6297 23.253C47.7258 23.6459 47.4048 23.3393 47.0918 22.643L46.0283 20.1614L45.3799 20.4392L45.0861 19.7398V19.7398Z" fill="#51318F"/>
<path d="M47.78 16.7582L48.6615 16.442L48.9825 17.3491L48.0962 17.6653L47.78 16.7582ZM48.3597 18.4078L49.2444 18.0948L50.7855 22.4162L49.9008 22.7244L48.3597 18.4078Z" fill="#51318F"/>
<path d="M50.0988 17.7867L50.7712 17.5871L50.4055 16.2712L51.3045 16.0077L51.6734 17.3252L52.4927 17.0952L52.6987 17.817L51.8874 18.055L52.5565 20.4073C52.6683 20.8145 52.7689 21.0029 53.1698 20.8959C53.2927 20.8576 53.4189 20.8177 53.5355 20.749L53.7478 21.4948C53.5594 21.5714 53.3758 21.6561 53.1793 21.7199C52.2371 21.9866 51.9577 21.6481 51.7261 20.9215L50.9772 18.3185L50.2985 18.5069L50.0988 17.7867Z" fill="#51318F"/>
<path d="M58.1075 20.6324L57.2021 20.8001L57.0855 20.1725H57.0647C56.9226 20.6723 56.4787 21.0556 56.0187 21.1466C54.9216 21.3463 54.3435 20.8416 54.1232 19.6663L53.593 16.8046L54.516 16.6353L55.0318 19.3996C55.1803 20.1917 55.5317 20.4216 56.0331 20.3354C56.7964 20.1853 56.9561 19.6104 56.8268 18.9093L56.3461 16.2967L57.2707 16.1243L58.1075 20.6324V20.6324Z" fill="#51318F"/>
<path d="M58.3486 16.0078L59.0529 15.9471L58.9299 14.5833L59.8625 14.4987L59.9807 15.8593L60.8255 15.7954L60.891 16.5395L60.0494 16.6082L60.2666 19.0419C60.3017 19.4572 60.3544 19.6648 60.7664 19.6408C60.9037 19.6184 61.0331 19.6073 61.1608 19.5546L61.2327 20.3387C61.0251 20.369 60.8287 20.4201 60.6323 20.4393C59.6645 20.5255 59.4361 20.1374 59.3579 19.3837L59.1184 16.6913L58.4125 16.7487L58.3486 16.0078V16.0078Z" fill="#51318F"/>
<path d="M62.71 18.2449C62.7004 18.9571 63.0549 19.6103 63.831 19.6215C64.3772 19.6326 64.7045 19.3755 64.8834 18.8789L65.7697 18.8917C65.5493 19.8897 64.7509 20.4423 63.8198 20.4183C62.4864 20.4008 61.7614 19.3755 61.7774 17.9606C61.8029 16.6591 62.6158 15.5573 63.8773 15.5764C65.2172 15.602 66.0188 16.929 65.8416 18.3024L62.71 18.2449V18.2449ZM64.909 17.6173C64.8866 16.9737 64.5017 16.3956 63.863 16.3845C63.213 16.3669 62.7643 16.8971 62.7259 17.5758L64.909 17.6173Z" fill="#51318F"/>
<path d="M69.0801 18.2977C69.326 16.9196 70.2794 16.0508 71.6192 16.3016C72.9734 16.5411 73.5531 17.6765 73.2992 19.0499C73.0485 20.4424 72.0983 21.2968 70.7569 21.054C69.4107 20.8129 68.8262 19.6759 69.0801 18.2977V18.2977ZM72.381 18.8854C72.5231 18.1157 72.3075 17.2342 71.4835 17.0888C70.6643 16.9307 70.1437 17.6829 69.9983 18.4542C69.8642 19.2431 70.0734 20.1182 70.8974 20.2652C71.7278 20.4201 72.2372 19.6759 72.381 18.8854" fill="#51318F"/>
<path d="M74.5128 17.0378L75.1915 17.2278L75.2841 16.8525C75.6083 15.7347 76.2023 15.6931 76.79 15.8624C77.0743 15.9391 77.2723 16.0093 77.408 16.1003L77.1956 16.8525C77.0823 16.7918 76.9721 16.7375 76.7868 16.688C76.5393 16.6194 76.3205 16.6625 76.2135 17.025L76.089 17.4753L76.8475 17.6877L76.6431 18.4191L75.883 18.2051L74.8402 21.8829L73.9443 21.6433L74.9807 17.9496L74.31 17.7532L74.5128 17.0378V17.0378Z" fill="#51318F"/>
<path d="M80.6179 17.1255L84.9616 19.0977L84.5576 19.968L82.8552 19.1935L80.6179 24.0802L79.6837 23.657L81.921 18.7608L80.2203 17.999L80.6179 17.1255Z" fill="#51318F"/>
<path d="M83.735 23.3681C83.3677 24.0004 83.3614 24.7302 84.0417 25.1231C84.5112 25.3914 84.9248 25.3371 85.3192 24.9826L86.0905 25.4329C85.4086 26.1946 84.4425 26.2809 83.6408 25.8178C82.4846 25.1486 82.3409 23.9046 83.05 22.691C83.7095 21.5619 84.9551 20.9966 86.0522 21.629C87.2164 22.2981 87.2707 23.8392 86.4434 24.9474L83.735 23.3681ZM85.966 23.903C86.2566 23.3361 86.1991 22.6319 85.6482 22.3157C85.0797 21.9931 84.4313 22.2263 84.064 22.8091L85.966 23.903V23.903Z" fill="#51318F"/>
<path d="M87.4529 26.3671C87.1383 26.8669 87.3396 27.2821 87.7404 27.5856C88.0262 27.7932 88.5644 28.0998 88.8582 27.6606C89.1585 27.2199 88.649 26.7631 88.1987 26.2202C87.7404 25.6836 87.3571 25.064 87.9177 24.3214C88.5085 23.5086 89.497 23.8567 90.1214 24.3214C90.8241 24.8436 91.2201 25.6213 90.7043 26.5108L89.9234 25.9263C90.139 25.492 89.9234 25.1662 89.5944 24.9187C89.3661 24.759 88.9253 24.5162 88.6874 24.8388C88.3935 25.2349 88.9078 25.7028 89.3629 26.2553C89.8116 26.7983 90.2029 27.4243 89.6663 28.1493C89.0115 29.0244 87.9576 28.7385 87.2533 28.2163C86.4022 27.5792 86.0636 26.6865 86.7008 25.8145L87.4529 26.3671V26.3671Z" fill="#51318F"/>
<path d="M92.116 26.0364L92.6414 26.5011L93.5532 25.4742L94.2559 26.1002L93.3424 27.1255L93.9828 27.6892L93.4829 28.2529L92.8474 27.6892L91.2281 29.5193C90.9454 29.8355 90.8304 30.0095 91.145 30.2874C91.2456 30.38 91.3447 30.4663 91.4676 30.5238L90.9454 31.1034C90.7777 30.9805 90.6133 30.8815 90.4568 30.7441C89.7254 30.0846 89.8627 29.6646 90.3545 29.0801L92.1495 27.068L91.6209 26.5969L92.116 26.0364V26.0364Z" fill="#51318F"/>
<path d="M94.7413 28.4416L95.4056 29.106L92.1622 32.3382L91.4931 31.6738L94.7413 28.4416ZM95.9853 27.1992L96.6448 27.8731L95.9693 28.5486L95.3034 27.8811L95.9853 27.1992V27.1992Z" fill="#51318F"/>
<path d="M96.4307 30.147L97.0008 30.8257L96.485 31.2521L96.4802 31.2856C97.0472 31.1818 97.5981 31.3463 97.959 31.779C98.5499 32.4801 98.5131 33.2754 97.7274 33.9397L95.3257 35.9582L94.714 35.2316L96.9194 33.3856C97.4592 32.9113 97.5278 32.5104 97.1781 32.0809C96.7773 31.605 96.1034 31.6401 95.5907 32.0697L93.5227 33.8024L92.9239 33.0837L96.4307 30.147V30.147Z" fill="#51318F"/>
<path d="M98.2945 39.9379C97.1495 40.6997 96.1626 40.4378 95.4312 39.3135C94.9601 38.5949 94.7285 37.5904 95.5877 36.9293L96.1003 37.723C95.6803 38.1366 95.8336 38.555 96.0907 38.951C96.5043 39.5802 97.0377 39.6441 97.6717 39.2241L98.2594 38.844L98.2498 38.8328C97.6829 38.8871 97.1655 38.638 96.8764 38.2021C96.1386 37.0682 96.7566 35.9999 97.8585 35.2829C98.8917 34.6074 100.174 34.6233 100.834 35.647C101.129 36.0941 101.191 36.6355 100.89 37.1113L100.902 37.1225L101.428 36.7808L101.942 37.5681L98.2945 39.9379V39.9379ZM99.5864 37.9769C100.256 37.5489 100.682 36.8766 100.233 36.1899C99.7796 35.4937 98.9253 35.6997 98.2849 36.1197C97.6573 36.5333 97.191 37.2375 97.627 37.8939C98.0805 38.5837 98.9349 38.4017 99.5864 37.9769Z" fill="#51318F"/>
<path d="M101.95 45.9023C101.715 46.0061 101.648 46.0843 101.71 46.2424C101.737 46.3063 101.774 46.3606 101.819 46.4437L101.18 46.7295C101.073 46.6129 100.901 46.3622 100.846 46.2217C100.693 45.872 100.722 45.5653 101.073 45.3338C100.575 45.1422 100.182 44.6471 99.9919 44.192C99.6933 43.4877 99.8338 42.6733 100.659 42.3299C101.71 41.8876 102.208 42.5966 102.605 43.2897C102.989 43.8582 103.149 44.4411 103.697 44.2079C104.184 44.0083 104.074 43.5085 103.922 43.1604C103.718 42.6733 103.368 42.4258 102.898 42.5727L102.528 41.7071C103.646 41.3127 104.321 42.0361 104.679 42.9048C105.006 43.6682 105.008 44.612 104.12 44.9872L101.95 45.9023V45.9023ZM102.759 44.5449C102.461 44.3533 102.292 43.9397 102.058 43.5883C101.833 43.2402 101.551 42.9719 101.067 43.1795C100.647 43.3456 100.73 43.9061 100.857 44.2047C101.016 44.5784 101.477 45.0894 102.063 44.8387L102.759 44.5449V44.5449Z" fill="#51318F"/>
<path d="M105.783 46.0269L106.025 46.8828L105.38 47.0649L105.366 47.0904C105.926 47.2182 106.365 47.6014 106.519 48.1412C106.768 49.0243 106.425 49.7349 105.433 50.0144L102.399 50.8784L102.142 49.9777L104.92 49.1856C105.604 48.9668 105.829 48.6315 105.679 48.0981C105.5 47.5088 104.88 47.2581 104.23 47.4449L101.626 48.1891L101.372 47.29L105.783 46.0269Z" fill="#51318F"/>
<path d="M103.242 55.8065L103.109 54.9314L103.715 54.8388V54.8212C103.167 54.6551 102.859 54.1649 102.777 53.6315C102.573 52.3108 103.524 51.5028 104.883 51.2952C106.517 51.0317 107.375 51.827 107.525 52.742C107.603 53.2642 107.488 53.8838 107.028 54.2463V54.2575L109.342 53.8998L109.494 54.8324L103.242 55.8065ZM103.58 53.6315C103.713 54.4603 104.582 54.6807 105.371 54.5577C106.372 54.4028 106.894 53.8583 106.787 53.1476C106.639 52.2757 105.765 52.1032 104.944 52.2278C104.174 52.3444 103.457 52.8298 103.58 53.6315" fill="#51318F"/>
<path d="M109.773 59.5434L109.638 63.7689L108.694 63.7353L108.788 60.5446L107.132 60.4872L107.041 63.4527L106.135 63.4112L106.225 60.4648L104.377 60.3977L104.281 63.6555L103.328 63.6315L103.457 59.3438L109.773 59.5434Z" fill="#51318F"/>
<path d="M102.581 68.4207L102.721 67.5456L103.334 67.6414V67.6271C102.868 67.2997 102.729 66.7344 102.814 66.2026C103.023 64.8803 104.192 64.4124 105.543 64.6312C107.177 64.8931 107.748 65.9072 107.608 66.8254C107.523 67.354 107.212 67.9033 106.672 68.1125L106.669 68.1221L108.981 68.5022L108.826 69.4236L102.581 68.4207V68.4207ZM103.579 66.4549C103.446 67.2821 104.205 67.758 104.995 67.8858C105.988 68.0518 106.653 67.7021 106.773 66.9851C106.908 66.1116 106.131 65.6628 105.321 65.5431C104.537 65.4185 103.713 65.6485 103.579 66.4549Z" fill="#51318F"/>
<path d="M101.298 73.0103L101.555 72.1192L102.167 72.2997L102.177 72.2901C101.79 71.9292 101.65 71.3607 101.782 70.9183C102.092 69.8516 102.801 69.5545 103.951 69.8883L106.745 70.7027L106.477 71.6018L103.786 70.8161C103.01 70.5941 102.644 70.8065 102.498 71.2968C102.282 72.0457 102.724 72.4514 103.403 72.6446L105.947 73.392L105.693 74.2894L101.298 73.0103Z" fill="#51318F"/>
<path d="M102.633 77.8027C103.176 77.956 103.599 77.7292 103.799 77.2534C103.994 76.8078 104.007 76.0796 102.723 75.5319C102.022 75.23 101.161 75.2093 100.845 75.9519C100.623 76.4469 100.845 76.9499 101.41 77.2949L101.038 78.1556C100.017 77.5296 99.6805 76.6369 100.107 75.6357C100.624 74.414 101.854 74.1377 103.09 74.6711C104.364 75.2204 105.081 76.2712 104.538 77.5664C104.158 78.4702 103.337 79.0323 102.272 78.6794L102.633 77.8027Z" fill="#51318F"/>
<path d="M98.1843 81.8352C97.9624 81.7154 97.8602 81.7058 97.7723 81.8543C97.7404 81.9006 97.7069 81.9629 97.6701 82.0603L97.0649 81.7186C97.0856 81.5605 97.1799 81.2842 97.2613 81.1469C97.4497 80.8163 97.7084 80.6486 98.1061 80.7956C97.9528 80.2654 98.1061 79.6681 98.3536 79.2322C98.7353 78.5678 99.4667 78.191 100.238 78.6301C101.234 79.2002 100.968 80.0306 100.663 80.7668C100.441 81.4184 100.069 81.9054 100.589 82.1977C101.051 82.4548 101.38 82.0667 101.57 81.7378C101.829 81.2842 101.809 80.8435 101.401 80.564L101.875 79.7496C102.86 80.3851 102.696 81.3721 102.234 82.1801C101.811 82.9083 101.07 83.4816 100.23 83.0025L98.1843 81.8352V81.8352ZM99.7541 81.6483C99.7206 81.3018 99.9537 80.9105 100.093 80.5129C100.225 80.1248 100.27 79.7288 99.8084 79.4653C99.4124 79.2449 99.0387 79.6426 98.8742 79.93C98.6682 80.2861 98.5452 80.9616 99.0978 81.273L99.7541 81.6483V81.6483Z" fill="#51318F"/>
<path d="M100.682 84.4861L100.283 85.0578L101.399 85.8451L100.859 86.618L99.7316 85.8195L99.2413 86.519L98.6265 86.0846L99.12 85.3867L97.1126 83.9782C96.7788 83.7467 96.5808 83.6445 96.3429 83.9862C96.263 84.0964 96.1832 84.2098 96.1385 84.3296L95.5045 83.8888C95.6051 83.7052 95.6929 83.5247 95.8111 83.3554C96.3796 82.5538 96.814 82.6496 97.448 83.0712L99.6613 84.6218L100.065 84.0469L100.682 84.4861V84.4861Z" fill="#51318F"/>
<path d="M98.6314 87.3205L98.0469 88.0471L94.4634 85.195L95.0463 84.4652L98.6314 87.3205ZM100 88.4112L99.4123 89.1474L98.6681 88.5486L99.2494 87.8124L100 88.4112V88.4112Z" fill="#51318F"/>
<path d="M95.6307 87.4595C96.6448 88.4321 96.8348 89.6872 95.8974 90.6821C94.96 91.6738 93.6888 91.5429 92.6684 90.5815C91.6495 89.6138 91.4547 88.3474 92.3889 87.3573C93.3279 86.3704 94.5943 86.4854 95.6307 87.4595V87.4595ZM93.3119 89.8964C93.8836 90.4426 94.7364 90.7428 95.3177 90.1344C95.8974 89.5196 95.5493 88.6876 94.9776 88.1446C94.3995 87.5921 93.5451 87.295 92.9718 87.9051C92.3921 88.5135 92.7355 89.3423 93.3119 89.8964Z" fill="#51318F"/>
<path d="M93.3121 93.0854L92.6286 93.6507L92.1975 93.1365L92.1719 93.1333C92.2805 93.697 92.1048 94.2464 91.6689 94.6057C90.9598 95.1918 90.1709 95.1614 89.5178 94.3661L87.5089 91.934L88.2339 91.332L90.0655 93.5613C90.5398 94.109 90.9439 94.1809 91.3671 93.8184C91.8541 93.4335 91.8206 92.7564 91.3926 92.2374L89.6663 90.1454L90.3833 89.553L93.3121 93.0854V93.0854Z" fill="#51318F"/>
<path d="M94.1008 62.4929C93.1219 62.4929 91.8188 63.5628 90.2043 65.7171C88.6009 67.8794 87.0088 70.6628 85.4757 74.0723C88.1458 73.0007 90.4135 71.4645 92.2835 69.5002C94.1471 67.5232 95.0685 65.6644 95.0717 63.911C95.0717 62.9815 94.7507 62.4929 94.1008 62.4929V62.4929ZM85.2649 74.6855C83.9826 77.7133 83.3486 80.2173 83.3486 82.2358C83.3486 83.9541 83.7526 85.064 84.5511 85.6165C89.9392 81.2585 93.9076 75.2716 95.7856 68.4063C95.3528 69.1856 94.7779 69.9043 94.0066 70.5558C92.2659 72.025 89.3403 73.4143 85.2649 74.6855V74.6855ZM40.1594 53.2786C42.3999 52.1016 44.9838 51.2504 47.8758 50.7235C45.8254 49.3581 44.7874 47.1767 44.7874 44.1904C44.7874 40.3657 46.3045 37.1447 49.3275 34.5768C47.2993 33.8103 45.4581 33.2402 43.7637 32.8346C35.5698 38.9077 30.2313 48.6139 30.2233 59.5897C30.2185 60.8241 30.2967 62.0282 30.4277 63.2179C30.6896 62.7021 30.9228 62.1767 31.2326 61.6641C33.4651 57.9704 36.4482 55.1677 40.1594 53.2786V53.2786ZM67.5166 36.4931C67.5166 35.3433 66.7564 34.3421 65.2298 33.4622C63.6935 32.5886 61.9321 32.1431 59.9439 32.1431C57.2147 32.1271 54.7203 33.0645 52.4718 34.9377C57.3968 37.4545 61.5313 38.7257 64.9008 38.7257C66.6494 38.7241 67.5166 37.9719 67.5166 36.4931V36.4931ZM63.636 26.2472C56.5664 26.2472 50.0301 28.4414 44.6277 32.1878C46.3076 32.6781 48.0739 33.2609 50.0189 34.0163C52.5804 32.06 55.5731 31.0891 58.9714 31.0891C61.4881 31.0891 63.6536 31.6161 65.4422 32.6924C67.2148 33.7592 68.1074 35.0543 68.1058 36.5746C68.1058 38.5308 66.9688 39.5193 64.6804 39.5193C62.8743 39.5145 58.5913 38.2003 51.8187 35.5541C48.6631 38.3839 47.0774 41.9451 47.0774 46.2504C47.0774 48.3376 47.5293 49.7717 48.438 50.5526C49.757 50.3897 50.7535 50.2955 51.4226 50.2955C53.3581 50.3035 54.3211 50.666 54.3211 51.3846C54.3211 51.8701 53.8069 52.1016 52.7848 52.1016C51.4945 52.1016 50.0748 51.7982 48.545 51.2121C46.4801 51.68 44.0927 52.94 41.3571 54.9937C36.207 58.8599 32.9668 63.5884 31.6222 69.1665C32.55 72.2677 33.9106 75.1838 35.6417 77.8283C35.9994 72.782 37.8471 68.0981 41.1847 63.7545C44.9183 58.9189 49.0065 56.4884 53.446 56.4884C55.5012 56.4884 57.1285 57.2837 58.3406 58.8614C59.5335 60.4504 60.1323 62.5695 60.1323 65.2348C60.1275 70.9295 58.1346 76.0796 54.1438 80.6485C51.2134 84.01 48.0148 86.1292 44.5319 87.0171C49.9343 90.7826 56.4865 93.0024 63.5689 93.012C71.2215 93.0151 78.256 90.4233 83.882 86.0988C83.3885 85.7283 82.9286 85.2173 82.515 84.5242C81.7852 83.2962 81.3732 81.8126 81.255 80.0672C78.8932 84.5051 77.0343 86.7536 75.6833 86.7536C74.8034 86.7536 74.088 86.2489 73.4987 85.2604C72.9254 84.2831 72.6284 83.0423 72.6236 81.5635C70.6482 84.9969 69.0416 86.7472 67.8056 86.7376C66.9369 86.7376 66.2023 86.2393 65.6162 85.2604C65.0493 84.3054 64.7682 83.1141 64.7539 81.6817C62.836 85.0257 61.3141 86.7344 60.2106 86.7344C59.4121 86.7344 58.7478 86.2457 58.2448 85.3035C57.7337 84.3454 57.4734 83.1445 57.4734 81.6817C57.4766 80.0672 57.7289 78.5134 58.1952 77.017C58.6679 75.5031 60.284 71.1515 63.0499 63.9685C66.4227 55.1597 69.2668 47.5296 71.5728 41.0572C72.1301 41.2919 72.6236 41.4117 73.05 41.4149C73.7494 41.4149 74.4122 41.244 74.9998 40.8831C67.1684 61.3303 62.6204 73.3505 61.3189 76.942C60.0237 80.5447 59.3882 82.9401 59.3882 84.0978C59.3786 85.4041 59.7299 86.078 60.4405 86.078C61.3971 86.078 62.8631 84.2943 64.8161 80.7603C64.9838 79.0819 65.5811 76.827 66.6846 73.8727L71.041 62.2565C71.6191 62.4482 72.071 62.5631 72.4016 62.5631C72.9046 62.5631 73.6121 62.4546 74.5303 62.2613L68.1809 78.6267C67.269 80.9886 66.8075 82.8091 66.8075 84.1026C66.798 85.4169 67.2419 86.0812 68.1218 86.0876C69.1534 86.0876 70.6737 84.2783 72.6795 80.6852C72.8104 79.0675 73.2655 77.1831 74.1071 74.949L78.8117 62.5695L75.9708 62.5663L76.2454 61.9068L79.0337 61.91L82.3058 53.3967C82.8615 53.6251 83.3933 53.7544 83.8868 53.7544C84.4202 53.7544 84.9519 53.6283 85.5045 53.3999L82.293 61.91H85.9484L85.7296 62.5759L82.0711 62.5695L75.8286 79.2815C75.0733 81.3112 74.6868 82.9081 74.6868 84.1138C74.6836 85.4313 75.1196 86.0956 75.9915 86.0956C77.1685 86.0956 78.9187 83.7992 81.2167 79.3278C81.2167 79.208 81.1943 79.0994 81.1943 78.9813C81.2087 73.7194 83.5498 69.0755 88.2257 65.0703C90.6738 62.9831 92.6651 61.9148 94.2062 61.9228C94.8801 61.9228 95.4534 62.2422 95.9213 62.8793C96.295 63.3728 96.4866 63.9764 96.5681 64.6519C96.814 63.0215 96.9833 61.3623 96.9833 59.6567C97.0008 41.2392 82.0727 26.2632 63.636 26.2472V26.2472ZM76.1033 56.7088C75.5699 57.6015 74.9519 58.039 74.3115 58.039C73.4652 58.039 73.0627 57.3779 73.0627 56.0652C73.0627 55.1007 73.3454 54.168 73.9203 53.2786C74.5016 52.3954 75.1052 51.9483 75.7264 51.9483C76.5281 51.9483 76.9321 52.5807 76.9321 53.8359C76.9321 54.8547 76.6511 55.8177 76.1033 56.7088V56.7088ZM53.3501 79.545C57.5373 74.7781 59.6325 69.8851 59.6373 64.8771C59.6373 62.7692 59.1119 61.0269 58.0547 59.6503C56.9944 58.2706 55.6577 57.5791 54.0496 57.5791C50.0349 57.5727 46.132 60.1949 42.3249 65.3977C38.9921 69.9602 37.1109 74.6041 36.6877 79.3118C38.6328 81.9723 40.9595 84.3214 43.5929 86.2968C46.8937 85.4345 50.1483 83.1892 53.3501 79.545" fill="#51318F"/>
<path d="M135.362 29.6517H138.723V29.3147C138.723 27.7354 138.578 26.3455 138.339 25.1942C139.773 25.3787 141.549 25.6247 143.66 25.9101C145.576 26.1044 146.582 26.4439 146.582 26.8719C146.582 27.4476 146.056 27.8805 145.001 28.2151C144.28 28.4537 143.945 28.8818 143.945 29.4623V29.6517H154.644V29.3147C154.644 27.7354 154.494 26.3455 154.258 25.1942C155.694 25.3787 157.47 25.6247 159.581 25.9101C161.497 26.1044 162.504 26.4439 162.504 26.8719C162.504 27.4476 161.977 27.8805 160.924 28.2151C160.203 28.4537 159.864 28.8818 159.864 29.4623V29.6517H162.887C162.986 29.6025 163.515 28.9802 164.425 27.7379C165.576 26.2938 166.248 25.5288 166.44 25.5288C167.013 25.5288 167.972 26.2496 169.318 27.6395C170.656 29.0786 171.328 29.9445 171.328 30.2298C171.328 30.7538 170.993 30.9973 170.366 30.9973H159.861V33.3983C159.861 34.0232 159.055 34.4512 157.465 34.739C156.745 34.8841 156.218 34.9284 155.933 34.9284C154.924 34.9284 154.445 34.648 154.445 33.9715C154.543 33.0613 154.641 32.3897 154.641 31.9125V30.9973H143.943V33.3983C143.943 34.0232 143.131 34.4512 141.542 34.739C140.824 34.8841 140.295 34.9284 140.009 34.9284C139.003 34.9284 138.523 34.648 138.523 33.9715C138.622 33.0613 138.718 32.3897 138.718 31.9125V30.9973H134.595C132 30.9973 129.891 31.1425 128.214 31.3344L127.444 29.1302C130.329 29.5066 132.969 29.6517 135.362 29.6517ZM136.853 36.798H146.204V36.6062C146.204 35.2187 146.058 33.7772 145.822 32.2889C148.026 32.5275 150.14 32.8178 152.152 33.1523C153.399 33.2507 154.066 33.5877 154.066 34.1609C154.066 34.3553 153.689 34.6431 152.919 34.9752C152.053 35.3614 151.625 35.7451 151.625 36.2248V36.798H160.066C160.164 36.7488 160.686 36.1289 161.65 34.9235C162.75 33.5853 163.426 32.8645 163.613 32.8645C164.191 32.8645 165.146 33.5336 166.395 34.8768C167.642 36.2224 168.319 37.0367 168.319 37.3245C168.319 37.8485 167.977 38.0895 167.404 38.0895H151.628V41.4474H159.488C159.586 41.4474 159.97 40.9727 160.735 40.0575C161.598 39.0047 162.127 38.4733 162.319 38.4733C162.801 38.4733 163.519 39.0047 164.523 40.0575C165.529 41.1596 166.058 41.8312 166.058 42.0255C166.058 42.552 165.82 42.7955 165.342 42.7955H151.628V46.3428H163.426C163.519 46.3428 164.048 45.7672 164.907 44.6651C165.965 43.413 166.636 42.7931 166.828 42.7931C167.357 42.7931 168.218 43.413 169.367 44.6134C170.521 45.8607 171.143 46.6233 171.143 46.9185C171.143 47.3932 170.858 47.6343 170.373 47.6343H134.022C131.289 47.6343 129.372 47.7327 128.223 47.8311L127.453 45.9566C128.993 46.242 131.151 46.3404 134.024 46.3404H146.206V42.7931H139.638C136.905 42.7931 134.981 42.8865 133.835 42.98L133.114 41.1153C134.605 41.3515 136.757 41.4474 139.638 41.4474H146.206V38.0895H136.856C134.071 38.0895 132.155 38.1879 131.05 38.279L130.285 36.4118C131.766 36.7045 133.977 36.798 136.853 36.798ZM140.831 50.4658H157.283C157.761 49.9886 158.098 49.5581 158.378 49.221C159.342 48.3084 160.063 47.8336 160.442 47.8336C160.924 47.8336 162.029 48.4461 163.704 49.6491C165.239 50.9012 166.053 51.7155 166.053 52.1435C166.053 52.5297 165.672 52.9627 164.9 53.4891C163.898 54.1583 163.419 54.7364 163.419 55.3095V64.7092C163.419 66.2467 162.41 67.3955 160.44 68.2565C158.907 68.8764 157.566 69.2184 156.509 69.2184C156.125 69.2184 155.788 68.596 155.502 67.3955C155.069 65.9589 153.49 64.7092 150.708 63.7523L150.9 62.8396C153.2 63.3193 155.069 63.5604 156.509 63.5604C157.468 63.5604 157.994 63.0782 157.994 62.0745V60.2025H140.009V67.489C140.009 68.163 139.143 68.687 137.468 69.024C136.747 69.1224 136.221 69.2184 135.884 69.2184C134.735 69.2184 134.206 68.687 134.206 67.6809C134.3 66.7239 134.396 65.6711 134.396 64.5198V52.3379C134.396 51.1349 134.3 49.7007 134.206 48.023C136.373 48.5962 138.58 49.4129 140.831 50.4658ZM158.002 54.5887V51.7671H140.017V54.5887H158.002ZM158.002 58.9085V55.8852H140.017V58.9085H158.002Z" fill="white"/>
<path d="M181.933 31.1842H185.34V29.4622C185.34 27.9272 185.197 26.5397 184.956 25.3368C186.395 25.5262 188.171 25.814 190.279 26.1068C192.196 26.2937 193.207 26.6332 193.207 27.0637C193.207 27.6394 192.68 28.0723 191.623 28.4118C190.902 28.648 190.565 29.0785 190.565 29.6541V31.1867H200.685V29.4647C200.685 27.9296 200.535 26.5422 200.299 25.3393C201.738 25.5287 203.561 25.8165 205.669 26.1092C207.588 26.2962 208.55 26.6357 208.55 27.0662C208.55 27.6418 208.021 28.0748 206.968 28.4143C206.245 28.6504 205.908 29.0809 205.908 29.6566V31.1891H210.228C210.324 31.1424 210.798 30.5667 211.664 29.5114C212.629 28.2642 213.248 27.5951 213.438 27.5951C213.92 27.5951 214.732 28.2199 215.841 29.4671C216.99 30.7144 217.566 31.4302 217.566 31.723C217.566 32.2494 217.278 32.488 216.798 32.488H205.908V36.6134C205.908 37.2383 205.098 37.6663 203.561 37.9566C202.793 38.0501 202.267 38.0993 201.977 38.0993C201.401 38.0993 201.017 38.0058 200.823 37.8139C200.535 38.0525 200.156 38.2469 199.674 38.4363C198.904 38.7241 198.474 39.0144 198.429 39.3957V42.0353H204.036C204.757 41.221 205.281 40.5002 205.664 39.8779C206.292 39.1079 206.867 38.6749 207.443 38.6749C207.923 38.6749 208.693 39.0611 209.743 39.8286C211.662 41.221 212.668 42.2272 212.668 42.8053C212.668 43.285 212.385 43.6195 211.903 43.8089C211.133 44.1976 210.796 44.6773 210.796 45.248V52.7289H211.376C211.47 52.6797 211.851 52.2541 212.523 51.3882C213.342 50.4263 213.817 49.8999 213.967 49.8999C214.444 49.8999 215.113 50.4288 216.07 51.4349C217.034 52.4435 217.558 53.0684 217.558 53.307C217.558 53.7867 217.367 54.0253 216.983 54.0253H199.094C199.814 55.179 200.776 56.2811 201.974 57.2873C203.413 58.5345 205.379 59.6341 207.873 60.5492C210.894 61.7005 214.25 62.5615 217.893 63.2356L217.75 64.3376C216.119 64.9133 215.111 65.6808 214.68 66.6402C214.105 67.8333 213.622 68.4606 213.241 68.4606C212.665 68.4606 211.657 68.0768 210.122 67.3585C208.397 66.6402 206.621 65.6341 204.705 64.2909C203.17 63.329 201.827 61.9859 200.629 60.3082C199.431 58.8691 198.469 56.7608 197.706 54.0253H197.418C196.552 56.3771 195.359 58.3426 193.915 59.9711C192.476 61.6513 190.368 63.1888 187.539 64.623C184.853 65.9711 180.681 67.3118 175.023 68.6549L174.639 67.8899C179.099 66.2072 182.835 64.3401 185.812 62.2294C188.211 60.5984 190.033 58.4878 191.278 55.9417C191.519 55.4644 191.758 54.7904 191.999 54.0253H180.631C177.898 54.0253 175.979 54.1213 174.828 54.2147L174.063 52.3476C175.551 52.6379 177.662 52.7289 180.442 52.7289V49.5161C180.442 45.344 180.25 42.1804 179.869 39.9738C181.642 40.3526 183.704 41.0783 186.006 42.0353H193.008C192.958 40.1214 192.769 37.7672 192.434 34.9333C194.159 35.226 195.933 35.5606 197.659 35.8976C199.052 36.1854 200.009 36.4708 200.535 36.761C200.634 36.0403 200.685 35.5163 200.685 35.13V32.4929H190.565V36.6183C190.565 37.2432 189.748 37.6712 188.166 37.9615C187.448 38.055 186.922 38.1042 186.629 38.1042C185.623 38.1042 185.145 37.8188 185.145 37.1965C185.241 36.2838 185.335 35.6147 185.335 35.1325V32.4954H181.212C178.619 32.4954 176.511 32.6381 174.828 32.8792L174.063 30.6233C176.961 30.9948 179.549 31.1842 181.947 31.1842H181.933ZM192.297 52.7191C192.73 50.4165 192.963 47.2529 193.012 43.3194H185.869V52.7191H192.297ZM197.812 52.7191H205.384V43.3194H198.434C198.336 47.7351 198.092 50.9011 197.812 52.7191Z" fill="white"/>
<path d="M228.016 27.5901H256.119C256.648 27.1129 257.127 26.6307 257.605 26.2002C258.279 25.5286 258.758 25.1965 259.095 25.1965C259.622 25.1965 260.581 25.6689 261.924 26.5815C263.504 27.8337 264.318 28.6922 264.318 29.1252C264.318 29.5557 263.983 30.0378 263.314 30.5151C262.741 31.0882 262.448 31.6171 262.448 32.0993V57.5652L262.832 67.1568C262.832 67.7299 261.924 68.2072 260.195 68.4999C259.427 68.5959 258.903 68.6426 258.515 68.6426C257.651 68.6426 257.221 68.1162 257.221 67.1568V66.3892H227.246V67.2994C227.246 67.9243 226.481 68.4015 224.948 68.6869C224.272 68.7828 223.794 68.8296 223.502 68.8296C222.355 68.8296 221.826 68.3031 221.826 67.2994C222.067 63.9415 222.208 60.9231 222.208 58.3303V33.5876C222.208 31.381 222.065 28.6012 221.826 25.3368C224.016 25.9124 226.082 26.6332 228.001 27.5901H228.016ZM257.216 65.0928V37.9024H247.004C247.147 41.74 247.531 45.1422 248.202 48.1188C249.019 46.1016 249.782 43.6588 250.458 40.7339C251.843 41.403 253.236 42.1189 254.628 42.7954C256.065 43.5162 256.832 44.0893 256.832 44.4755C256.832 44.9528 256.254 45.1939 255.152 45.1939C254.431 45.1939 254.001 45.3833 253.86 45.7671C252.468 48.8839 251.127 51.4251 249.779 53.4422C250.886 56.2245 251.988 57.5652 253.09 57.5652C253.381 57.5652 254.146 55.3586 255.346 50.8519L256.254 51.2356C255.777 55.6956 255.536 58.1876 255.536 58.719C255.536 59.0043 255.683 59.5775 256.02 60.4434C256.303 61.2134 256.448 61.7866 256.448 62.0744C256.352 63.2257 255.821 63.8456 254.962 63.9415C252.903 63.9415 250.793 62.8395 248.586 60.5886C247.718 59.7202 247.002 58.6722 246.333 57.4275C245.467 58.2368 244.653 58.9551 243.789 59.6267C241.391 61.548 238.754 62.9871 235.878 63.944L235.494 63.2281C237.986 61.6931 240.431 59.6267 242.783 57.0412C243.548 56.1778 244.321 55.2184 244.987 54.2073C244.793 53.6341 244.606 53.0609 244.461 52.4361C243.499 49.0807 242.83 44.2369 242.35 37.9049H234.34C231.61 37.9049 229.688 38.0008 228.542 38.0943L227.819 36.2272C229.307 36.5125 231.46 36.6085 234.34 36.6085H242.257C242.062 34.4486 241.966 32.1485 241.873 29.6541C243.405 29.9443 244.894 30.1805 246.232 30.424C247.386 30.6135 248.249 30.8078 248.825 30.9972C248.68 30.7118 248.539 30.4732 248.394 30.2297L248.967 29.6541C250.645 30.0895 251.794 30.4732 252.419 30.7537C253.233 31.2408 253.666 31.6221 253.666 31.9123C253.666 32.8693 253.427 33.6368 252.997 34.2124C252.372 34.8324 251.703 35.1226 251.029 35.1226C250.645 35.1226 250.36 35.0734 250.215 34.8816C249.974 34.7881 249.779 34.2543 249.639 33.3957C249.59 33.1079 249.543 32.8201 249.447 32.5273C249.115 32.7217 248.726 32.9111 248.252 33.0095C247.341 33.2506 246.908 33.6343 246.908 34.1608C246.908 35.0218 246.908 35.8434 246.955 36.606H252.183C252.232 36.5593 252.618 36.1288 253.285 35.3613C254.101 34.4461 254.579 33.9689 254.773 33.9689C255.154 33.9689 255.824 34.4461 256.785 35.4105C256.931 35.6023 257.071 35.7918 257.216 35.8877V28.9333H227.241V65.0928H257.105H257.216ZM243.563 54.2049C240.018 57.2774 236.323 59.4324 232.392 60.778C231.959 60.869 231.77 61.0658 231.77 61.3069C231.671 61.4988 231.624 61.6906 231.624 61.8825C231.526 62.2663 231.383 62.4582 231.189 62.4582C230.567 62.4582 229.848 61.4004 228.985 59.2921C228.741 58.719 228.358 57.8063 227.831 56.4607C233.494 55.9318 238.667 54.9748 243.366 53.6317L243.587 54.2049H243.563ZM234.633 42.4091H236.075C236.557 41.7843 237.034 41.2579 237.516 40.7806C237.851 40.3969 238.183 40.1558 238.473 40.1558C238.763 40.1558 239.479 40.4928 240.537 41.1619C241.784 42.0278 242.409 42.6502 242.409 42.9823C242.409 43.3686 242.215 43.7031 241.88 44.0893C241.592 44.4239 241.496 44.8077 241.496 45.2382V47.1102C241.496 48.3574 241.546 50.0327 241.686 52.1434C241.686 52.719 240.97 53.1077 239.624 53.2971C239.002 53.3955 238.572 53.4447 238.281 53.4447C237.516 53.4447 237.179 53.0142 237.179 52.1458H234.016V52.9158C234.016 53.4447 233.344 53.826 232.099 54.0646C231.521 54.1606 231.086 54.2073 230.805 54.2073C229.939 54.2073 229.511 53.7793 229.511 52.9183C229.607 51.5702 229.701 50.1828 229.701 48.7929V46.1557C229.701 44.2394 229.556 42.3673 229.319 40.5494C231.041 41.0193 232.813 41.6416 234.633 42.4091ZM237.191 50.8494V43.7031H234.028V50.8494H237.201H237.191Z" fill="white"/>
<path d="M281.89 28.2617C282.517 28.8841 282.992 29.3638 283.28 29.7033C283.617 28.3134 283.905 26.8251 284.193 25.1965C285.58 25.5803 286.923 25.9616 288.266 26.3478C289.514 26.7291 290.188 27.1596 290.188 27.5926C290.188 27.9763 289.799 28.2174 289.13 28.3133C288.409 28.4117 288.03 28.552 287.937 28.7439C287.787 29.1276 287.644 29.5114 287.501 29.8459H290.716C291.191 29.413 291.577 28.98 291.868 28.6012C292.441 27.9296 292.869 27.5926 293.157 27.5926C293.491 27.5926 294.308 28.1239 295.602 29.0784C295.895 29.317 296.131 29.5089 296.325 29.6516C296.037 28.4093 295.794 27.1129 295.602 25.718H296.707C296.994 27.2039 297.568 28.9333 298.431 30.9455C299.294 33.1497 300.303 34.9234 301.454 36.269C301.501 36.3649 301.548 36.4609 301.597 36.4609C301.981 34.4461 302.365 32.242 302.697 29.8435H300.829C300.06 29.8435 299.437 29.9886 298.957 30.2272L298.239 28.1682C298.67 28.4511 299.393 28.5471 300.397 28.5471H302.554C302.889 28.2592 303.272 27.9247 303.75 27.5409C304.421 26.9653 304.857 26.675 305.142 26.675C305.526 26.675 306.389 27.1547 307.826 28.0674C309.555 29.2162 310.419 29.9837 310.419 30.4166C310.419 30.8004 309.749 31.0415 308.404 31.1817C307.545 31.376 307.019 31.5236 306.82 31.7155C305.627 34.0181 304.33 36.0279 302.984 37.8483C303.654 38.5199 304.421 39.0488 305.24 39.4793C306.628 40.392 308.453 41.1595 310.753 41.8286L310.61 42.9799C309.267 43.1767 308.305 43.9442 307.634 45.3316C307.25 46.3894 306.916 46.9183 306.672 46.9183C306.288 46.9183 305.523 46.4337 304.276 45.4792C302.982 44.5174 301.735 43.0733 300.488 41.2111C299.235 39.3858 298.234 37.2309 297.511 34.734C297.226 33.868 296.987 32.8644 296.748 31.8115C296.601 31.9074 296.458 31.9566 296.362 31.9566C295.499 32.242 294.972 32.5249 294.83 32.8644C293.577 36.7979 292.384 39.6761 291.137 41.403C290.271 42.6502 289.405 43.7031 288.544 44.5666C290.03 44.756 291.998 44.8569 294.49 44.8569H295.208C295.304 44.8052 295.784 44.232 296.648 43.1767C297.612 41.927 298.234 41.2997 298.424 41.2997C298.903 41.2997 299.72 41.927 300.825 43.1226C301.976 44.3747 302.549 45.1373 302.549 45.3784C302.549 45.9073 302.259 46.1483 301.782 46.1483H294.49C291.708 46.1483 289.789 46.2418 288.687 46.3402L288.114 44.9971C287.637 45.4768 287.113 45.9073 286.628 46.291C284.95 47.5333 283.083 48.6428 281.017 49.5038C281.115 49.7449 281.164 49.9368 281.26 50.1262C281.691 51.2775 281.929 52.4312 281.929 53.6268C281.929 55.3069 281.595 56.4557 280.923 57.1322C280.202 58.1359 279.437 58.8543 278.621 59.2897C277.755 59.7669 277.036 60.008 276.51 60.008C276.129 60.008 275.792 59.5258 275.602 58.5689C275.312 57.7054 274.404 56.8887 272.916 56.1729V68.062C272.916 68.5934 272.193 68.9722 270.756 69.2625C270.087 69.3142 269.651 69.3585 269.364 69.3585C268.36 69.3585 267.878 68.923 267.878 68.062C268.119 64.8493 268.262 62.0695 268.262 59.6193V34.1608C268.262 32.0501 268.116 29.5064 267.878 26.488C269.895 26.9653 271.809 27.6861 273.536 28.5495H275.742C276.414 27.8829 276.943 27.354 277.423 26.8718C277.952 26.488 278.382 26.2937 278.719 26.2937C279.113 26.2937 280.146 26.9653 281.794 28.2617H281.89ZM272.911 54.8297C273.774 54.9232 274.542 54.9724 275.164 54.9724C275.88 54.9724 276.412 54.8297 276.694 54.4951C277.034 53.9687 277.228 53.1077 277.228 51.9515C277.228 49.9884 276.94 48.3574 276.458 47.1102C275.787 45.4817 274.827 43.8507 273.484 42.2173C274.633 38.5765 275.595 34.4486 276.308 29.8459H272.909V54.8297H272.911ZM284.621 45.093C285.774 43.6588 286.923 41.9295 287.978 39.868C288.264 39.3415 288.502 38.7659 288.795 38.0894H288.694C288.074 38.0894 287.641 37.9959 287.4 37.804C287.068 37.7056 286.827 37.1349 286.633 36.1755C286.441 35.3613 286.106 34.5445 285.629 33.7254C285.199 34.4461 284.763 35.071 284.382 35.6466C283.998 36.2223 283.563 36.7979 283.088 37.3268C284.237 37.804 285.1 38.1903 285.58 38.5224C286.35 39.1472 286.778 39.6761 286.778 40.1533C286.778 41.0684 286.542 41.7819 286.158 42.3108C285.58 42.8864 285.004 43.1791 284.382 43.1791C283.947 43.1791 283.664 43.0758 283.521 42.8889C283.322 42.7462 283.137 42.1705 282.987 41.1619C282.891 40.2517 282.608 39.2923 282.22 38.3329C281.356 39.344 280.35 40.3452 279.297 41.3046L278.724 40.7364C280.207 38.1411 281.359 35.7475 282.129 33.5384C282.414 32.7709 282.655 31.9591 282.894 31.0932C282.655 31.1866 282.463 31.285 282.323 31.285C281.314 31.5753 280.736 31.8164 280.643 32.1018C278.628 36.3231 276.704 39.7302 274.79 42.2173C277.093 43.9934 278.726 45.5776 279.683 46.9675C280.018 47.4448 280.352 48.0253 280.643 48.5985C282.291 47.3021 283.644 46.1508 284.653 45.093H284.621ZM288.507 55.8358C289.853 56.6058 290.576 57.1864 290.576 57.5652C290.576 57.949 290.192 58.1384 289.516 58.1876C288.699 58.1876 288.22 58.3327 288.126 58.5246C287.024 60.0105 285.873 61.3069 284.626 62.4606C283.238 63.8948 281.027 65.2896 278.008 66.7755L277.624 66.0079C279.255 64.3278 280.694 62.5049 281.942 60.4951C283.378 58.1876 284.345 55.9342 284.913 53.826C286.266 54.6378 287.472 55.3094 288.529 55.8358H288.507ZM288.852 51.2332H301.799C301.895 51.1815 302.372 50.6059 303.285 49.5555C304.345 48.3058 304.962 47.6342 305.157 47.6342C305.686 47.6342 306.547 48.259 307.698 49.5063C308.849 50.7535 309.474 51.4693 309.474 51.7645C309.474 52.2885 309.191 52.5296 308.706 52.5296H298.057V63.2257C298.057 65.6242 297.243 67.1592 295.612 67.88C294.079 68.6451 292.879 69.0264 292.067 69.0264C291.681 69.0264 291.344 68.4532 291.058 67.3978C290.677 65.8652 289.142 64.6131 286.453 63.5602L286.645 62.8395C288.564 63.1297 290.151 63.2257 291.494 63.2257C292.355 63.2257 292.785 62.7952 292.785 61.8825V52.5296H288.854C286.119 52.5296 284.2 52.628 283.049 52.719L282.333 50.8494C283.809 51.1323 285.949 51.2332 288.852 51.2332ZM289.27 33.777C289.605 34.0648 289.846 34.2518 290.037 34.4019C290.328 33.3957 290.613 32.3379 290.901 31.1842H286.923C286.734 31.6688 286.495 32.0993 286.303 32.4806C287.705 32.9603 288.714 33.3957 289.28 33.777H289.27ZM307.007 57.6587C309.405 59.0043 310.603 60.4434 310.603 61.8825C310.603 62.9354 310.313 63.7005 309.789 64.281C309.019 65.0485 308.301 65.4347 307.577 65.4347C307.051 65.4347 306.524 64.9059 305.998 63.944C305.324 62.6033 304.411 61.1199 303.211 59.3905C302.593 58.5246 301.442 57.3241 299.715 55.6956L300.288 54.9748C303.068 55.7399 305.282 56.6501 307.004 57.6587H307.007Z" fill="white"/>
<path d="M319.528 34.734H323.848C323.941 34.6848 324.47 34.0649 325.424 32.8644C326.534 31.5237 327.203 30.8029 327.397 30.8029C327.97 30.8029 328.93 31.472 330.177 32.8152C331.424 34.1584 332.093 35.0194 332.093 35.3096C332.093 35.7893 331.761 36.028 331.137 36.028H319.528C316.795 36.028 314.876 36.1264 313.73 36.2223L313.006 34.3527C314.507 34.643 316.647 34.734 319.525 34.734H319.528ZM321.594 28.9333H321.978C322.076 28.8817 322.554 28.3109 323.464 27.2581C324.517 26.0084 325.141 25.3368 325.336 25.3368C325.86 25.3368 326.723 25.9592 327.926 27.2039C329.073 28.4536 329.651 29.2187 329.651 29.4622C329.651 29.9887 329.412 30.2297 328.93 30.2297H321.594C318.864 30.2297 316.94 30.3257 315.791 30.4216L315.073 28.5496C316.549 28.8349 318.713 28.9333 321.592 28.9333H321.594ZM321.594 40.9209H322.94C323.036 40.8742 323.513 40.2985 324.374 39.2407C325.427 37.996 326.101 37.3268 326.293 37.3268C326.827 37.3268 327.683 37.9492 328.834 39.1989C329.988 40.4437 330.613 41.2112 330.613 41.4498C330.613 41.9787 330.322 42.2173 329.845 42.2173H321.594C318.864 42.2173 316.94 42.3132 315.791 42.4092L315.073 40.5445C316.549 40.8274 318.713 40.9209 321.592 40.9209H321.594ZM321.545 54.2049H322.94C323.606 53.3956 324.231 52.6723 324.856 52.0475C325.287 51.521 325.722 51.2357 326.101 51.2357C326.485 51.2357 327.351 51.6711 328.738 52.4804C330.322 53.6317 331.139 54.3992 331.139 54.783C331.139 55.2184 330.854 55.6465 330.271 56.0819C329.845 56.4607 329.651 56.8937 329.651 57.3758V61.3069C329.651 62.7952 329.697 64.7583 329.845 67.3019C329.845 67.9268 329.023 68.404 327.444 68.6894C326.723 68.7853 326.192 68.8321 325.909 68.8321C325.043 68.8321 324.615 68.3056 324.615 67.3019V65.4348H320.487V67.4914C320.487 68.067 319.722 68.5492 318.19 68.8788C317.513 68.9772 317.031 69.0264 316.745 69.0264C315.693 69.0264 315.213 68.5024 315.213 67.4914C315.311 65.8653 315.405 64.2811 315.405 62.6501V58.5247C315.405 56.2246 315.26 53.9687 315.068 51.767C317.159 52.3845 319.324 53.2012 321.513 54.2049H321.545ZM321.791 47.4424H322.753C322.846 47.4424 323.324 46.8692 324.187 45.8114C325.242 44.5666 325.916 43.895 326.106 43.895C326.637 43.895 327.496 44.5199 328.647 45.7671C329.801 47.0119 330.423 47.7351 330.423 48.0229C330.423 48.5469 330.138 48.7904 329.656 48.7904H321.791C319.058 48.7904 317.137 48.8839 315.988 48.9823L315.22 47.1103C316.77 47.344 318.935 47.4424 321.813 47.4424H321.791ZM324.62 64.1384V55.4964H320.492V64.1384H324.625H324.62ZM338.47 28.7414H348.78C348.871 28.6922 349.304 28.1707 350.167 27.1572C351.124 25.9592 351.751 25.3368 351.938 25.3368C352.42 25.3368 353.19 25.9592 354.243 27.1572C355.301 28.3109 355.874 29.0293 355.874 29.3146C355.874 29.7943 355.591 30.0379 355.104 30.0379H344.509L343.454 35.7918C344.888 35.8435 346.234 35.8435 347.434 35.8435C347.909 35.4105 348.44 34.9751 348.964 34.547C349.636 33.9247 350.118 33.5876 350.45 33.5876C350.885 33.5876 351.7 34.0649 352.851 35.0218C354.096 36.0821 354.772 36.7069 354.772 36.9947C354.772 37.4252 354.337 37.8533 353.52 38.2395C352.753 38.7167 352.366 39.1497 352.32 39.5777L351.412 46.729H352.32C352.563 46.3452 352.851 45.7671 353.23 45.002C353.709 44.0402 354 43.5162 354.189 43.5162C354.479 43.5162 355.055 44.0894 355.823 45.2382C356.593 46.296 357.026 46.9651 357.026 47.3021C357.026 47.7818 356.834 48.0229 356.45 48.0229H335.255C334.288 48.0229 333.045 48.1189 331.51 48.2148L330.79 46.3427C332.708 46.6256 334.194 46.7265 335.255 46.7265H336.497L338.175 37.2309C336.45 37.2801 334.822 37.3268 333.38 37.3268L332.662 35.4572C334.726 35.5507 336.642 35.6466 338.467 35.6958L339.429 30.0379H338.467C335.683 30.0379 333.764 30.1313 332.662 30.2273L331.894 28.3577C333.395 28.6455 335.609 28.7414 338.487 28.7414H338.47ZM340.118 53.2947H346.733C347.407 52.5272 348.076 51.8089 348.748 51.2332C349.227 50.7535 349.658 50.4632 350.091 50.4632C350.472 50.4632 351.434 50.9405 352.917 51.8064C354.642 52.9601 355.51 53.7744 355.51 54.2024C355.51 54.6821 355.124 55.1151 354.452 55.5948C353.874 56.0278 353.636 56.5099 353.636 57.0364V61.302C353.636 62.8346 353.687 64.8493 353.825 67.4864C353.825 68.0621 352.967 68.5442 351.336 68.8739C350.568 68.9723 350.042 69.0215 349.705 69.0215C348.841 69.0215 348.413 68.4975 348.413 67.4864V65.4299H338.871V67.8751C338.871 68.4458 338.052 68.9255 336.467 69.2626C335.751 69.3142 335.22 69.3585 334.937 69.3585C333.879 69.3585 333.397 68.8247 333.397 67.8727C333.493 66.1408 333.589 64.5148 333.589 62.8321V57.7547C333.589 55.4078 333.444 53.1053 333.205 50.8495C335.419 51.4251 337.707 52.2443 340.118 53.2947ZM348.408 64.1384V54.5886H338.866V64.1384H348.411H348.408ZM348.015 37.1842H343.21L341.537 46.729H346.814L348.019 37.1842H348.015Z" fill="white"/>
<path d="M366.538 35.4573H394.452C394.548 35.4081 395.175 34.6874 396.275 33.3467C397.569 31.8141 398.336 30.9949 398.575 30.9949C399.202 30.9949 400.255 31.7649 401.697 33.2507C403.087 34.7857 403.805 35.696 403.805 36.0305C403.805 36.5619 403.47 36.8005 402.892 36.8005H366.541C363.815 36.8005 361.896 36.8964 360.743 36.9948L359.973 35.1203C361.498 35.3614 363.663 35.4573 366.541 35.4573H366.538ZM371.754 42.0255H389.404C389.495 41.9763 390.071 41.2556 391.129 39.9173C392.376 38.3306 393.094 37.5188 393.333 37.5188C393.958 37.5188 395.01 38.2814 396.452 39.8189C397.844 41.354 398.558 42.2642 398.558 42.6012C398.558 43.076 398.226 43.3195 397.601 43.3195H371.751C369.018 43.3195 367.094 43.4154 365.948 43.5163L365.232 41.6418C366.708 41.9296 368.848 42.0255 371.727 42.0255H371.754ZM371.754 48.5962H389.404C389.495 48.5445 390.071 47.8311 391.129 46.4855C392.376 44.9013 393.094 44.0895 393.333 44.0895C393.958 44.0895 395.01 44.8595 396.452 46.3428C397.844 47.8803 398.558 48.8348 398.558 49.1694C398.558 49.6466 398.226 49.8877 397.601 49.8877H371.751C369.018 49.8877 367.094 49.9861 365.948 50.0796L365.232 48.2124C366.708 48.5027 368.848 48.5962 371.727 48.5962H371.754ZM372.713 28.9334H389.02C389.116 28.8818 389.593 28.311 390.506 27.1573C391.564 25.8633 392.189 25.1942 392.378 25.1942C392.951 25.1942 393.82 25.8609 395.065 27.1106C396.263 28.4513 396.887 29.2163 396.887 29.4598C396.887 29.9863 396.6 30.2274 396.12 30.2274H372.713C369.933 30.2274 368.017 30.3233 366.91 30.4193L366.145 28.5472C367.719 28.835 369.859 28.9334 372.738 28.9334H372.713ZM373.057 55.1668H389.411C390.078 54.3501 390.755 53.6294 391.419 52.9627C391.901 52.4338 392.336 52.1435 392.767 52.1435C393.151 52.1435 394.108 52.6281 395.596 53.4891C397.323 54.6847 398.184 55.4965 398.184 55.8852C398.184 56.3673 397.852 56.8003 397.222 57.2775C396.745 57.7105 396.509 58.1877 396.509 58.7191V61.1594C396.509 62.6945 396.555 64.8027 396.698 67.489C396.698 68.0646 395.832 68.5468 394.105 68.8764C393.293 68.9748 392.713 69.024 392.381 69.024C391.517 69.024 391.084 68.5001 391.084 67.489V65.6218H371.761V67.6809C371.761 68.2565 370.944 68.7387 369.412 69.0683C368.691 69.1692 368.167 69.2184 367.83 69.2184C366.821 69.2184 366.344 68.687 366.344 67.6809C366.435 66.0056 366.531 64.3722 366.531 62.6477V59.6244C366.531 57.2775 366.391 54.9725 366.152 52.7192C368.292 53.2948 370.605 54.109 372.991 55.1668H373.057ZM391.089 64.3279V56.4608H371.766V64.3279H391.101H391.089Z" fill="white"/>
<path d="M414.065 32.289V29.4624C414.065 28.2152 413.918 26.8721 413.723 25.5264C415.645 25.7183 417.514 26.0086 419.337 26.3456C420.442 26.3948 421.015 26.6777 421.015 27.2583C421.015 27.4477 420.678 27.6863 420.009 27.9741C419.29 28.3112 418.956 28.6925 418.956 29.1254V31.9101C419.194 31.6199 419.485 31.2828 419.819 30.9015C420.68 29.8437 421.207 29.3148 421.401 29.3148C421.832 29.3148 422.55 29.8437 423.605 30.9015C423.701 31.0467 423.8 31.1402 423.896 31.1844C424.663 29.7453 425.381 28.262 426.053 26.6777C427.733 27.5904 429.121 28.3604 430.23 29.0295C431.571 29.797 432.24 30.3726 432.24 30.8056C432.24 31.2828 431.804 31.5264 430.941 31.5264L429.458 31.332C427.012 34.7859 424.899 37.4697 423.13 39.3861H425.522C425.62 39.3861 426.001 38.8596 426.729 37.9002C427.59 36.7982 428.114 36.2225 428.309 36.2225C428.788 36.2225 429.6 36.7957 430.658 37.9002C430.658 37.9494 430.702 37.9962 430.752 37.9962C430.941 37.5189 431.091 37.0368 431.278 36.5595C432.338 33.3443 433.199 29.5067 433.964 25C435.6 25.4772 437.229 25.9102 438.811 26.3456C440.299 26.8229 441.066 27.3075 441.066 27.7847C441.066 28.3112 440.633 28.6457 439.819 28.7417C439 28.9335 438.523 29.1254 438.432 29.3148C437.561 31.9101 436.653 34.2078 435.649 36.225H441.066C441.066 36.225 441.593 35.7453 442.552 34.6875C443.797 33.2508 444.609 32.4833 444.997 32.4833C445.381 32.4833 446.434 33.2976 448.21 34.9261C449.312 35.8904 449.888 36.5128 449.888 36.8006C449.888 37.2803 449.553 37.5214 448.928 37.5214H446.626C446.247 43.3196 445.472 47.7353 444.422 50.7562C443.462 53.5409 442.314 55.932 441.017 57.9517C441.541 58.5249 442.119 59.0981 442.744 59.5778C444.904 61.4031 447.396 62.9357 450.225 64.1386L449.885 64.9061C448.786 64.9971 447.922 65.8655 447.293 67.4424C446.724 68.5026 446.338 69.0266 446.097 69.0266C445.14 69.0266 443.462 67.7794 441.064 65.2899C439.817 64.0377 438.712 62.7462 437.849 61.4498C436.985 62.2665 436.023 62.9849 435.02 63.654C431.95 65.7671 428.547 67.5875 424.759 69.0242L424.183 68.0648C426.483 66.9135 428.788 65.2874 431.044 63.2702C432.862 61.7352 434.395 59.9591 435.74 57.9935C435.116 56.7463 434.638 55.4942 434.255 54.2519C433.148 50.3675 432.528 46.1486 432.338 41.6394C431.187 43.2729 429.841 44.8571 428.358 46.4832C428.931 47.108 429.268 47.5361 429.268 47.8313C429.268 48.2593 428.597 48.5004 427.349 48.5447C426.296 48.6455 425.622 48.7882 425.335 48.9801C423.994 49.8435 422.894 50.5127 421.93 51.0391C423.418 51.3786 424.186 51.7648 424.186 52.1412C424.186 52.6258 423.753 53.012 422.983 53.2949C422.894 53.3466 422.798 53.3933 422.702 53.3933C425.625 52.9136 428.456 52.3847 431.143 51.7648L431.524 52.5299C428.36 54.2543 425.096 55.6934 421.787 56.8447V63.7524C421.787 65.5752 421.162 66.9159 419.967 67.6835C418.528 68.5494 417.135 69.0266 415.795 69.0266C415.364 69.0266 415.126 68.5986 415.03 67.7794C414.835 66.4412 413.396 65.0955 410.71 63.7524L410.902 62.8397C413.155 63.2259 414.835 63.3686 415.987 63.3686C416.56 63.3686 416.894 63.13 416.894 62.6503V58.4289C415.266 58.9086 413.635 59.2949 412.004 59.6245C411.234 59.7204 410.902 59.9123 410.902 60.2026C410.806 60.3969 410.759 60.5864 410.71 60.8693C410.619 61.3071 410.427 61.499 410.134 61.499C409.514 61.499 408.791 60.4437 407.977 58.2863C407.691 57.7106 407.308 56.702 406.781 55.3097C410.235 55.0735 413.637 54.7365 416.897 54.2543C416.848 53.3933 416.707 52.001 416.513 50.0822C417.765 50.2716 418.821 50.4659 419.588 50.5643C420.065 49.6049 420.543 48.5028 421.022 47.3024H419.345C417.285 47.3024 415.364 47.445 413.539 47.6369L413.258 46.8694C411.335 47.7821 409.081 48.648 406.589 49.5065L406.016 48.7882C410.52 46.3897 414.117 43.7993 416.764 41.0195C416.85 40.9211 416.899 40.8276 416.995 40.7342H412.776C410.041 40.7342 408.122 40.8276 406.971 40.9211L406.208 39.0515C407.738 39.2926 409.901 39.3861 412.776 39.3861H414.073V33.5879C411.335 33.5879 409.418 33.6813 408.267 33.7773L407.549 31.9101C409.099 32.1906 411.263 32.289 414.142 32.289H414.065ZM429.637 40.7342H421.819C421.148 41.45 420.525 42.0257 419.95 42.4586C418.801 43.6099 417.268 44.7144 415.391 45.7673C416.639 45.9125 417.935 45.9592 419.327 45.9592H420.813C421.29 45.482 421.679 45.0515 421.967 44.6677C422.88 43.7993 423.549 43.3196 423.979 43.3196C424.555 43.3196 425.509 43.9912 426.951 45.2384C427.103 45.3836 427.236 45.482 427.335 45.5262C428.196 43.851 428.958 42.2643 429.622 40.7342H429.637ZM422.503 33.5879H418.956V38.4759C420.235 36.9408 421.44 35.3123 422.498 33.5879H422.503ZM434.533 45.8633C435.204 48.648 436.161 51.0883 437.359 53.2949C437.549 53.6295 437.745 53.9198 437.984 54.2027C438.85 52.4315 439.519 50.6061 439.996 48.7365C440.865 45.6197 441.339 41.8805 441.438 37.5165H434.916C434.574 38.1364 434.245 38.712 433.952 39.1967C433.763 39.4796 433.617 39.7723 433.475 39.9642C433.598 41.6419 433.942 43.6099 434.508 45.8633H434.533Z" fill="white"/>
<path d="M477.238 25.7649C478.436 25.8633 479.061 26.1536 479.061 26.6776C479.061 26.9211 478.677 27.204 478.003 27.5435C477.186 27.9273 476.805 28.4119 476.805 28.9334V31.3319H488.077C488.168 31.3319 488.699 30.6603 489.612 29.4131C490.761 27.9765 491.43 27.2606 491.617 27.2606C492.2 27.2606 493.157 27.9765 494.5 29.3172C495.794 30.7538 496.47 31.6222 496.47 31.9125C496.47 32.4364 496.133 32.6775 495.553 32.6775H473.831C471.671 34.9284 469.612 36.8989 467.696 38.5766C473.162 38.3847 478.719 37.9518 484.382 37.3761C483.327 36.5127 482.225 35.6984 481.122 34.9284L481.506 33.9715C484.475 34.6455 486.884 35.3638 488.648 36.1314C490.377 36.8989 491.671 37.7599 492.438 38.7193C493.105 39.4868 493.491 40.2543 493.491 41.1227C493.491 41.9345 493.157 42.6553 492.584 43.2285C492.06 43.9492 491.43 44.2863 490.662 44.2863C490.136 44.2863 489.083 43.1301 487.45 40.7389C486.923 40.0649 486.397 39.4401 485.863 38.8201C478.675 40.8324 470.473 42.3183 461.312 43.2801C462.992 43.8533 464.719 44.4781 466.493 45.2432H483.181C483.659 44.7635 483.996 44.3355 484.286 43.996C485.15 43.0809 485.819 42.6061 486.2 42.6061C486.677 42.6061 487.74 43.1842 489.366 44.3355C490.854 45.4867 491.614 46.301 491.614 46.734C491.614 47.1153 491.24 47.5433 490.517 48.0771C489.609 48.7438 489.177 49.3219 489.177 49.8951V64.5247C489.177 66.2024 488.308 67.4939 486.63 68.3598C485.243 69.0289 484.089 69.3684 483.181 69.3684C482.746 69.3684 482.367 68.7436 482.033 67.5923C481.551 66.1507 479.681 64.9084 476.421 63.9466L476.613 63.0339C479.295 63.2775 481.504 63.3734 483.181 63.3734C483.659 63.3734 483.947 62.8937 483.947 61.8876V58.9134H465.201V67.8826C465.201 68.4533 464.385 68.933 462.8 69.27C462.08 69.3217 461.553 69.366 461.265 69.366C460.257 69.366 459.78 68.8321 459.78 67.8801C459.878 66.1483 459.971 64.5222 459.971 62.8396V49.7007C459.971 47.5876 459.829 45.4818 459.634 43.4671C459.538 43.5187 459.443 43.5187 459.396 43.5187C459.201 43.5187 459.061 43.8533 458.963 44.4265C458.768 45.0956 458.579 45.3859 458.291 45.3859C457.622 45.3859 457 44.6184 456.518 42.9849C456.178 42.1215 455.703 40.7808 455.078 38.862C458.003 38.862 460.928 38.8152 463.856 38.7168C464.906 36.9407 466.011 34.926 467.069 32.6751H459.777C457.184 32.6751 455.078 32.8202 453.398 33.0588L452.628 30.8055C455.509 31.1843 458.097 31.3319 460.495 31.3319H471.573V29.1277C471.573 27.787 471.428 26.4463 471.189 25.0023C473.255 25.1967 475.273 25.4796 477.241 25.7649H477.238ZM483.929 51.2333V46.5298H465.184V51.2333H483.929ZM483.929 57.5653V52.5297H465.184V57.5653H483.929Z" fill="white"/>
<path d="M508.554 35.6491H517.809V34.9259C517.809 31.381 517.617 28.215 517.233 25.5287C518.862 25.7206 520.972 25.9616 523.469 26.3479C525.194 26.584 526.057 26.921 526.057 27.4032C526.057 27.9764 525.531 28.4561 524.524 28.7906C523.757 29.0317 523.42 29.4622 523.42 30.0403V35.6491H532.242C533.014 34.7365 533.732 33.9247 534.401 33.2014C534.884 32.6258 535.366 32.2912 535.794 32.2912C536.227 32.2912 537.23 32.8201 538.812 33.7771C540.64 35.071 541.594 35.9345 541.594 36.4142C541.594 36.8939 541.159 37.3269 540.404 37.8041C539.823 38.2371 539.533 38.7143 539.533 39.2407V47.4424C539.533 49.0315 539.582 51.1324 539.722 53.8236C539.722 54.446 538.861 54.9232 537.137 55.2135C536.318 55.307 535.745 55.307 535.41 55.307C534.544 55.307 534.116 54.8297 534.116 53.8211V51.5629H523.42V57.7522C523.42 60.8666 523.472 63.9391 523.619 66.9625C523.619 67.6341 522.707 68.1138 520.972 68.4483C520.21 68.5443 519.636 68.6402 519.297 68.6402C518.047 68.6402 517.425 68.0646 517.425 66.9625C517.666 63.6046 517.809 60.537 517.809 57.7522V51.5629H507.875V53.6268C507.875 54.3008 507.017 54.8273 505.339 55.1643C504.571 55.2578 504.043 55.307 503.757 55.307C502.508 55.307 501.885 54.8297 501.885 53.8211C502.124 49.9368 502.266 46.483 502.266 43.5137V42.6011C502.266 40.1116 502.121 37.039 501.885 33.3958C504.222 33.969 506.436 34.734 508.502 35.6491H508.554ZM517.804 50.2714V36.9923H507.87V50.2689H517.809L517.804 50.2714ZM523.413 50.2714H534.109V36.9923H523.413V50.2714Z" fill="white"/>
<path d="M553.007 42.0255C553.007 48.0697 552.82 52.141 552.478 54.3501C552.099 56.7486 551.474 58.4263 550.557 59.3881C550.033 59.9589 549.459 60.2024 548.884 60.2024C547.826 60.2024 546.911 59.9121 546.249 59.2922C545.575 58.7633 545.285 57.9958 545.285 57.0389C545.285 56.0795 545.863 54.9257 547.105 53.585C548.352 52.2443 549.364 50.756 550.079 49.0316C550.8 47.4424 551.373 45.0513 551.853 41.8311L553.009 42.0255H553.007ZM562.552 36.1289C564.367 36.4142 565.326 36.7512 565.326 37.1842C565.326 37.7574 564.854 38.2395 563.939 38.5249C563.267 38.7684 562.928 39.1989 562.928 39.777V60.9699C562.928 62.0745 563.267 62.6944 563.939 62.8863C565.282 63.1298 567.344 63.2257 570.126 63.2257C571.708 63.2257 573.046 63.0757 574.153 62.6944C574.923 62.4582 575.447 62.0745 575.737 61.5948C575.932 61.2135 576.217 60.3992 576.556 59.1495C576.891 57.6169 577.275 55.4989 577.705 52.9159L578.852 53.2972C578.952 55.9835 578.999 57.617 578.999 58.2861C578.999 60.0105 579.432 61.1593 580.3 61.8334C581.449 62.7436 582.015 63.5086 582.015 64.1384C582.015 65.0953 581.449 65.9096 580.3 66.5812C579.388 67.0584 578.428 67.3954 577.371 67.5381C575.55 67.8801 573.105 68.067 570.131 68.067C565.43 68.067 562.313 67.8801 560.775 67.5381C559.489 67.2528 558.618 66.6771 558.185 65.8161C557.801 65.1421 557.661 64.0917 557.661 62.4607V40.9234C557.661 39.103 557.513 37.2826 557.275 35.4597C558.775 35.6024 560.547 35.8435 562.515 36.1289H562.552ZM571.088 29.6049C572.625 30.8595 573.39 32.2912 573.39 33.969C573.39 34.83 573.012 35.6024 572.335 36.3675C571.855 36.9407 571.186 37.1842 570.419 37.1842C569.176 37.1842 568.116 36.2715 567.255 34.3577C566.057 31.7205 563.991 29.1769 561.063 26.68L561.405 25.9125C566.005 27.0613 569.277 28.311 571.098 29.6049H571.088ZM586.192 47.8803C587.629 49.6982 588.401 51.3267 588.401 52.7191C588.401 54.1582 587.966 55.3095 587.201 56.2689C586.487 57.275 585.617 57.7547 584.66 57.7547C584.086 57.7547 583.558 57.5653 583.174 57.1864C582.79 56.7043 582.359 55.216 581.88 52.6723C581.309 49.7499 579.821 46.2468 577.329 42.2174L578.288 41.4498C582.052 43.8508 584.709 46.0058 586.185 47.8803H586.192Z" fill="white"/>
<path d="M138.216 90.5958H127.618V76.2368H138.076V77.9588H129.557V82.3573H137.414V84.0768H129.557V88.8738H138.216V90.5958Z" fill="white"/>
<path d="M141.982 88.8763H149.261V90.5958H140.041V76.2368H141.982V88.8763Z" fill="white"/>
<path d="M153.07 90.5958H151.131V76.2368H153.07V90.5958Z" fill="white"/>
<path d="M154.907 76.2393H166.565V77.9613H161.704V90.5983H159.763V77.9613H154.905V76.2393H154.907Z" fill="white"/>
<path d="M179.259 90.5958H168.659V76.2368H179.116V77.9588H170.6V82.3573H178.457V84.0768H170.6V88.8738H179.261V90.5958H179.259Z" fill="white"/>
<path d="M197.187 91.1664H187.957V78.6598H197.067V80.1579H189.645V83.9882H196.491V85.4863H189.645V89.6658H197.185V91.1664H197.187Z" fill="white"/>
<path d="M206.715 91.1665H205.18V85.5577C205.18 83.971 204.729 83.1715 203.231 83.1715C202.36 83.1715 200.825 83.73 200.825 86.1998V91.1665H199.295V82.0596H200.739V83.3437H200.776C201.108 82.8591 201.959 81.7939 203.526 81.7939C204.938 81.7939 206.715 82.3696 206.715 84.9649V91.1665Z" fill="white"/>
<path d="M216.626 90.4139C216.626 91.7202 216.611 94.9944 212.395 94.9944C211.317 94.9944 209.209 94.6992 208.912 92.2786H210.444C210.722 93.7226 212.137 93.7226 212.498 93.7226C215.042 93.7226 215.096 91.7546 215.096 90.6378V90.1359C214.661 90.8666 213.859 91.425 212.641 91.425C209.539 91.425 208.634 88.5123 208.634 86.3377C208.634 83.7793 210.011 81.7916 212.432 81.7916C214.085 81.7916 214.798 82.8371 215.182 83.3931V82.0598H216.626V90.4139ZM212.665 90.099C213.642 90.099 215.16 89.4594 215.16 87.0363C215.16 85.5554 214.914 83.1717 212.702 83.1717C210.336 83.1717 210.213 85.4201 210.213 86.5862C210.213 88.5886 211 90.099 212.673 90.099H212.665Z" fill="white"/>
<path d="M220.414 91.1664H218.882V78.6598H220.414V91.1664Z" fill="white"/>
<path d="M222.825 80.4015V78.6598H224.355V80.4015H222.83H222.825ZM224.35 91.1664H222.82V82.0595H224.35V91.1664Z" fill="white"/>
<path d="M231.927 84.6525C231.91 84.0768 231.698 83.1174 229.767 83.1174C229.297 83.1174 227.957 83.2749 227.957 84.4065C227.957 85.1543 228.424 85.329 229.612 85.6242L231.142 86.0055C233.039 86.4753 233.703 87.174 233.703 88.4113C233.703 90.2908 232.154 91.4273 230.097 91.4273C226.493 91.4273 226.232 89.3314 226.178 88.2391H227.657C227.711 88.9501 227.92 90.0989 230.08 90.0989C231.177 90.0989 232.171 89.6659 232.171 88.6549C232.171 87.9243 231.664 87.6807 230.36 87.3511L228.582 86.9181C227.31 86.5983 226.476 85.9563 226.476 84.7017C226.476 82.7017 228.131 81.7939 229.925 81.7939C233.179 81.7939 233.408 84.1998 233.408 84.6525H231.957H231.927Z" fill="white"/>
<path d="M242.948 91.1664H241.418V85.2083C241.418 83.9709 241.068 83.1714 239.607 83.1714C238.353 83.1714 237.064 83.9021 237.064 86.1997V91.1664H235.533V78.6598H237.064V83.2772H237.1C237.536 82.7016 238.301 81.7938 239.765 81.7938C241.174 81.7938 242.95 82.3695 242.95 84.9648V91.1664H242.948Z" fill="white"/>
<path d="M252.124 89.6683H258.463V91.1664H250.431V78.6598H252.124V89.6683Z" fill="white"/>
<path d="M259.947 84.8271C260.016 82.6475 261.46 81.7964 263.708 81.7964C264.439 81.7964 267.086 82.0055 267.086 84.34V89.5823C267.086 89.9636 267.275 90.1235 267.59 90.1235C267.73 90.1235 267.922 90.0866 268.094 90.0546V91.169C267.836 91.233 267.61 91.3412 267.26 91.3412C265.9 91.3412 265.691 90.6425 265.642 89.9488C265.046 90.5933 264.124 91.4322 262.35 91.4322C260.677 91.4322 259.494 90.367 259.494 88.8025C259.494 88.0325 259.718 86.2564 262.262 85.9439L264.783 85.6315C265.15 85.5996 265.585 85.4593 265.585 84.5516C265.585 83.5922 264.889 83.0707 263.445 83.0707C261.701 83.0707 261.457 84.1358 261.351 84.832H259.974L259.947 84.8271ZM265.555 86.5122C265.309 86.7041 264.931 86.8468 263.029 87.0878C262.284 87.1912 261.081 87.42 261.081 88.5712C261.081 89.5577 261.587 90.153 262.734 90.153C264.166 90.153 265.555 89.233 265.555 88.0103V86.5122Z" fill="white"/>
<path d="M277.191 91.1665H275.659V85.5577C275.659 83.971 275.208 83.1715 273.708 83.1715C272.837 83.1715 271.307 83.73 271.307 86.1998V91.1665H269.774V82.0596H271.218V83.3437H271.253C271.585 82.8591 272.436 81.7939 274.003 81.7939C275.418 81.7939 277.191 82.3696 277.191 84.9649V91.1665Z" fill="white"/>
<path d="M287.105 90.4139C287.105 91.7202 287.088 94.9944 282.871 94.9944C281.794 94.9944 279.683 94.6992 279.388 92.2786H280.923C281.198 93.7226 282.613 93.7226 282.974 93.7226C285.52 93.7226 285.572 91.7546 285.572 90.6378V90.1359C285.137 90.8666 284.335 91.425 283.117 91.425C280.015 91.425 279.11 88.5123 279.11 86.3377C279.11 83.7793 280.487 81.7916 282.906 81.7916C284.561 81.7916 285.274 82.8371 285.658 83.3931V82.0598H287.105V90.4139ZM283.144 90.099C284.118 90.099 285.636 89.4594 285.636 87.0363C285.636 85.5554 285.393 83.1717 283.181 83.1717C280.81 83.1717 280.689 85.4201 280.689 86.5862C280.689 88.5886 281.476 90.099 283.149 90.099H283.144Z" fill="white"/>
<path d="M295.247 91.1665V89.8406L295.213 89.8061C294.568 90.8688 293.784 91.4273 292.322 91.4273C290.979 91.4273 289.358 90.7778 289.358 88.6056V82.0596H290.893V88.1013C290.893 89.597 291.661 90.1013 292.65 90.1013C294.586 90.1013 295.161 88.399 295.161 87.0755V82.0596H296.694V91.1665H295.242H295.247Z" fill="white"/>
<path d="M299.036 84.8271C299.107 82.6475 300.554 81.7964 302.802 81.7964C303.53 81.7964 306.177 82.0055 306.177 84.34V89.5823C306.177 89.9636 306.369 90.1235 306.682 90.1235C306.824 90.1235 307.016 90.0866 307.186 90.0546V91.169C306.925 91.233 306.701 91.3412 306.352 91.3412C304.992 91.3412 304.782 90.6425 304.733 89.9488C304.14 90.5933 303.218 91.4322 301.442 91.4322C299.769 91.4322 298.586 90.367 298.586 88.8025C298.586 88.0325 298.812 86.2564 301.353 85.9439L303.875 85.6315C304.241 85.5996 304.679 85.4593 304.679 84.5516C304.679 83.5922 303.98 83.0707 302.536 83.0707C300.792 83.0707 300.551 84.1358 300.445 84.832H299.092L299.036 84.8271ZM304.645 86.5122C304.399 86.7041 304.02 86.8468 302.121 87.0878C301.37 87.1912 300.17 87.42 300.17 88.5712C300.17 89.5577 300.677 90.153 301.823 90.153C303.252 90.153 304.645 89.233 304.645 88.0103V86.5122Z" fill="white"/>
<path d="M316.404 90.4139C316.404 91.7202 316.384 94.9944 312.167 94.9944C311.09 94.9944 308.982 94.6992 308.686 92.2786H310.222C310.497 93.7226 311.909 93.7226 312.273 93.7226C314.819 93.7226 314.871 91.7546 314.871 90.6378V90.1359C314.436 90.8666 313.634 91.425 312.413 91.425C309.314 91.425 308.411 88.5123 308.411 86.3377C308.411 83.7793 309.786 81.7916 312.207 81.7916C313.86 81.7916 314.576 82.8371 314.955 83.3931V82.0598H316.404V90.4139ZM312.467 90.099C313.444 90.099 314.959 89.4594 314.959 87.0363C314.959 85.5554 314.713 83.1717 312.502 83.1717C310.135 83.1717 310.012 85.4201 310.012 86.5862C310.012 88.5886 310.8 90.099 312.472 90.099H312.467Z" fill="white"/>
<path d="M326.342 88.308C326.29 88.7459 325.87 90.0325 324.721 90.8C324.303 91.0804 323.712 91.4297 322.248 91.4297C319.688 91.4297 318.172 89.4962 318.172 86.8689C318.172 84.0424 319.533 81.7964 322.544 81.7964C325.173 81.7964 326.465 83.8898 326.465 87.11H319.811C319.811 89.0066 320.699 90.1013 322.453 90.1013C323.904 90.1013 324.758 88.9894 324.807 88.308H326.357H326.342ZM324.89 85.8849C324.802 84.4753 324.209 83.1691 322.347 83.1691C320.94 83.1691 319.823 84.4729 319.823 85.8849H324.89Z" fill="white"/>
<path d="M335.469 91.1664H333.776V78.6598H335.469V91.1664Z" fill="white"/>
<path d="M345.677 91.1665H344.145V85.5577C344.145 83.971 343.692 83.1715 342.194 83.1715C341.323 83.1715 339.791 83.73 339.791 86.1998V91.1665H338.258V82.0596H339.702V83.3437H339.739C340.069 82.8591 340.922 81.7939 342.489 81.7939C343.901 81.7939 345.677 82.3696 345.677 84.9649V91.1665Z" fill="white"/>
<path d="M353.181 84.6525C353.163 84.0768 352.957 83.1174 351.018 83.1174C350.553 83.1174 349.213 83.2749 349.213 84.4065C349.213 85.1543 349.682 85.329 350.868 85.6242L352.398 86.0055C354.297 86.4753 354.959 87.174 354.959 88.4113C354.959 90.2908 353.407 91.4273 351.353 91.4273C347.746 91.4273 347.488 89.3314 347.434 88.2391H348.917C348.969 88.9501 349.176 90.0989 351.333 90.0989C352.433 90.0989 353.427 89.6659 353.427 88.6549C353.427 87.9243 352.922 87.6807 351.618 87.3511L349.84 86.9181C348.566 86.5983 347.734 85.9563 347.734 84.7017C347.734 82.7017 349.387 81.7939 351.181 81.7939C354.435 81.7939 354.666 84.1998 354.666 84.6525H353.215H353.181Z" fill="white"/>
<path d="M358.691 83.3241V89.2478C358.691 89.9612 359.299 89.9612 359.613 89.9612H360.155V91.1641C359.594 91.2133 359.161 91.2846 359.003 91.2846C357.488 91.2846 357.156 90.431 357.156 89.3314V83.3241H355.919V82.0596H357.156V79.5135H358.691V82.0596H360.155V83.3266H358.703L358.691 83.3241Z" fill="white"/>
<path d="M361.766 80.4015V78.6598H363.301V80.4015H361.776H361.766ZM363.316 91.1664H361.781V82.0595H363.316V91.1664Z" fill="white"/>
<path d="M367.572 83.3241V89.2478C367.572 89.9612 368.179 89.9612 368.497 89.9612H369.035V91.1641C368.474 91.2133 368.041 91.2846 367.884 91.2846C366.371 91.2846 366.039 90.431 366.039 89.3314V83.3241H364.804V82.0596H366.039V79.5135H367.572V82.0596H369.035V83.3266H367.559L367.572 83.3241Z" fill="white"/>
<path d="M376.55 91.1665V89.8406L376.516 89.8061C375.869 90.8688 375.087 91.4273 373.623 91.4273C372.28 91.4273 370.661 90.7778 370.661 88.6056V82.0596H372.194V88.1013C372.194 89.597 372.961 90.1013 373.953 90.1013C375.889 90.1013 376.464 88.399 376.464 87.0755V82.0596H377.997V91.1665H376.546H376.55Z" fill="white"/>
<path d="M382.282 83.3241V89.2478C382.282 89.9612 382.887 89.9612 383.202 89.9612H383.741V91.1641C383.18 91.2133 382.75 91.2846 382.592 91.2846C381.079 91.2846 380.745 90.431 380.745 89.3314V83.3241H379.505V82.0596H380.745V79.5135H382.282V82.0596H383.741V83.3266H382.29L382.282 83.3241Z" fill="white"/>
<path d="M393.057 88.308C393.003 88.7459 392.587 90.0325 391.433 90.8C391.018 91.0804 390.425 91.4297 388.961 91.4297C386.403 91.4297 384.89 89.4962 384.89 86.8689C384.89 84.0424 386.248 81.7964 389.259 81.7964C391.886 81.7964 393.178 83.8898 393.178 87.11H386.523C386.523 89.0066 387.411 90.1013 389.17 90.1013C390.617 90.1013 391.473 88.9894 391.522 88.308H393.047H393.057ZM391.581 85.8849C391.492 84.4753 390.905 83.1691 389.037 83.1691C387.628 83.1691 386.513 84.4729 386.513 85.8849H391.581Z" fill="white"/>
<path d="M403.734 81.7939C406.641 81.7939 407.965 84.249 407.965 86.5983C407.965 88.9501 406.641 91.4052 403.734 91.4052C400.826 91.4052 399.5 88.9501 399.5 86.5983C399.5 84.249 400.828 81.7939 403.731 81.7939H403.734ZM403.734 90.0841C405.928 90.0841 406.378 87.8185 406.378 86.5983C406.378 85.3806 405.926 83.1174 403.734 83.1174C401.542 83.1174 401.084 85.3806 401.084 86.5983C401.084 87.8209 401.552 90.0841 403.741 90.0841H403.734Z" fill="white"/>
<path d="M411.679 83.3239V91.1664H410.147V83.3239H408.892V82.0595H410.147V80.49C410.147 79.11 411.018 78.4851 412.516 78.4851C412.744 78.4851 412.971 78.5048 413.214 78.5245V79.8996C413.02 79.8824 412.779 79.8603 412.585 79.8603C411.923 79.8603 411.679 80.1923 411.679 80.9279V82.062H413.214V83.3289H411.714L411.679 83.3239Z" fill="white"/>
<path d="M417.903 78.6598H428.058V80.1579H423.822V91.1664H422.132V80.1579H417.901V78.6598H417.903Z" fill="white"/>
<path d="M435.147 88.308C435.096 88.7459 434.678 90.0325 433.529 90.8C433.111 91.0804 432.52 91.4297 431.057 91.4297C428.493 91.4297 426.978 89.4962 426.978 86.8689C426.978 84.0424 428.338 81.7964 431.352 81.7964C433.979 81.7964 435.268 83.8898 435.268 87.11H428.616C428.616 89.0066 429.504 90.1013 431.261 90.1013C432.71 90.1013 433.563 88.9894 433.615 88.308H435.165H435.147ZM433.696 85.8849C433.608 84.4753 433.017 83.1691 431.152 83.1691C429.743 83.1691 428.628 84.4729 428.628 85.8849H433.696Z" fill="white"/>
<path d="M442.355 84.6525C442.341 84.0768 442.132 83.1174 440.198 83.1174C439.728 83.1174 438.387 83.2749 438.387 84.4065C438.387 85.1543 438.855 85.329 440.041 85.6242L441.576 86.0055C443.472 86.4753 444.134 87.174 444.134 88.4113C444.134 90.2908 442.584 91.4273 440.528 91.4273C436.924 91.4273 436.663 89.3314 436.611 88.2391H438.092C438.144 88.9501 438.351 90.0989 440.513 90.0989C441.608 90.0989 442.604 89.6659 442.604 88.6549C442.604 87.9243 442.095 87.6807 440.793 87.3511L439.015 86.9181C437.74 86.5983 436.909 85.9563 436.909 84.7017C436.909 82.7017 438.562 81.7939 440.355 81.7939C443.612 81.7939 443.839 84.1998 443.839 84.6525H442.412H442.355Z" fill="white"/>
<path d="M447.866 83.3241V89.2478C447.866 89.9612 448.473 89.9612 448.786 89.9612H449.325V91.1641C448.769 91.2133 448.336 91.2846 448.178 91.2846C446.663 91.2846 446.331 90.431 446.331 89.3314V83.3241H445.096V82.0596H446.331V79.5135H447.866V82.0596H449.325V83.3266H447.898L447.866 83.3241Z" fill="white"/>
<path d="M450.941 80.4015V78.6598H452.471V80.4015H450.946H450.941ZM452.491 91.1664H450.961V82.0595H452.491V91.1664Z" fill="white"/>
<path d="M462.281 91.1665H460.749V85.5577C460.749 83.971 460.294 83.1715 458.801 83.1715C457.927 83.1715 456.392 83.73 456.392 86.1998V91.1665H454.862V82.0596H456.309V83.3437H456.343C456.678 82.8591 457.526 81.7939 459.096 81.7939C460.503 81.7939 462.281 82.3696 462.281 84.9649V91.1665Z" fill="white"/>
<path d="M472.195 90.4139C472.195 91.7202 472.175 94.9944 467.961 94.9944C466.881 94.9944 464.773 94.6992 464.478 92.2786H466.011C466.286 93.7226 467.701 93.7226 468.065 93.7226C470.608 93.7226 470.66 91.7546 470.66 90.6378V90.1359C470.225 90.8666 469.425 91.425 468.205 91.425C465.108 91.425 464.202 88.5123 464.202 86.3377C464.202 83.7793 465.575 81.7916 467.998 81.7916C469.649 81.7916 470.367 82.8371 470.749 83.3931V82.0598H472.195V90.4139ZM468.234 90.099C469.209 90.099 470.726 89.4594 470.726 87.0363C470.726 85.5554 470.478 83.1717 468.269 83.1717C465.9 83.1717 465.777 85.4201 465.777 86.5862C465.777 88.5886 466.564 90.099 468.237 90.099H468.234Z" fill="white"/>
<path d="M479.28 84.8271C479.349 82.6475 480.798 81.7964 483.041 81.7964C483.775 81.7964 486.422 82.0055 486.422 84.34V89.5823C486.422 89.9636 486.613 90.1235 486.926 90.1235C487.066 90.1235 487.258 90.0866 487.43 90.0546V91.169C487.172 91.233 486.943 91.3412 486.596 91.3412C485.236 91.3412 485.027 90.6425 484.975 89.9488C484.385 90.5933 483.46 91.4322 481.681 91.4322C480.013 91.4322 478.825 90.367 478.825 88.8025C478.825 88.0325 479.054 86.2564 481.597 85.9439L484.121 85.6315C484.486 85.5996 484.923 85.4593 484.923 84.5516C484.923 83.5922 484.225 83.0707 482.778 83.0707C481.039 83.0707 480.795 84.1358 480.69 84.832H479.263L479.28 84.8271ZM484.889 86.5122C484.648 86.7041 484.262 86.8468 482.367 87.0878C481.612 87.1912 480.414 87.42 480.414 88.5712C480.414 89.5577 480.919 90.153 482.067 90.153C483.497 90.153 484.889 89.233 484.889 88.0103V86.5122Z" fill="white"/>
<path d="M496.525 91.1665H494.99V85.5577C494.99 83.971 494.535 83.1715 493.041 83.1715C492.171 83.1715 490.636 83.73 490.636 86.1998V91.1665H489.103V82.0596H490.549V83.3437H490.584C490.916 82.8591 491.77 81.7939 493.337 81.7939C494.746 81.7939 496.525 82.3696 496.525 84.9649V91.1665Z" fill="white"/>
<path d="M506.438 91.1664H504.99V89.9094H504.953C504.291 91.1443 503.25 91.4272 502.357 91.4272C499.258 91.4272 498.352 88.5146 498.352 86.3399C498.352 83.7815 499.73 81.7938 502.146 81.7938C503.804 81.7938 504.498 82.8221 504.867 83.3436H504.901V78.6598H506.436V91.1664H506.438ZM502.379 90.0988C503.356 90.0988 504.871 89.4592 504.871 87.0361C504.871 85.5552 504.628 83.1714 502.419 83.1714C500.052 83.1714 499.927 85.4199 499.927 86.5859C499.951 88.5883 500.714 90.0988 502.387 90.0988H502.379Z" fill="white"/>
<path d="M523.167 91.1664H513.937V78.6598H523.041V80.1579H515.619V83.9882H522.463V85.4863H515.619V89.6658H523.164V91.1664H523.167Z" fill="white"/>
<path d="M532.834 91.1664H531.388V89.9094H531.349C530.692 91.1443 529.646 91.4272 528.758 91.4272C525.656 91.4272 524.751 88.5146 524.751 86.3399C524.751 83.7815 526.128 81.7938 528.547 81.7938C530.202 81.7938 530.898 82.8221 531.265 83.3436H531.297V78.6598H532.832V91.1664H532.834ZM528.8 90.0988C529.777 90.0988 531.292 89.4592 531.292 87.0361C531.292 85.5552 531.046 83.1714 528.834 83.1714C526.465 83.1714 526.342 85.4199 526.342 86.5859C526.342 88.5883 527.13 90.0988 528.802 90.0988H528.8Z" fill="white"/>
<path d="M540.977 91.1665V89.8406L540.945 89.8061C540.301 90.8688 539.518 91.4273 538.055 91.4273C536.709 91.4273 535.093 90.7778 535.093 88.6056V82.0596H536.625V88.1013C536.625 89.597 537.39 90.1013 538.384 90.1013C540.318 90.1013 540.894 88.399 540.894 87.0755V82.0596H542.426V91.1665H540.975H540.977Z" fill="white"/>
<path d="M550.497 85.1199C550.303 83.9022 549.624 83.1715 548.335 83.1715C546.438 83.1715 545.826 84.9796 545.826 86.6008C545.826 88.1702 546.209 90.1013 548.315 90.1013C549.343 90.1013 550.236 89.3338 550.497 87.9415H551.973C551.818 89.3879 550.933 91.4297 548.268 91.4297C545.703 91.4297 544.19 89.4962 544.19 86.8689C544.19 84.0424 545.55 81.7964 548.564 81.7964C550.947 81.7964 551.858 83.5356 551.973 85.1223H550.497V85.1199Z" fill="white"/>
<path d="M553.547 84.8271C553.616 82.6475 555.065 81.7964 557.311 81.7964C558.042 81.7964 560.689 82.0055 560.689 84.34V89.5823C560.689 89.9636 560.883 90.1235 561.195 90.1235C561.333 90.1235 561.523 90.0866 561.702 90.0546V91.169C561.441 91.233 561.208 91.3412 560.863 91.3412C559.503 91.3412 559.294 90.6425 559.245 89.9488C558.652 90.5933 557.727 91.4322 555.953 91.4322C554.278 91.4322 553.095 90.367 553.095 88.8025C553.095 88.0325 553.321 86.2564 555.862 85.9439L558.389 85.6315C558.753 85.5996 559.188 85.4593 559.188 84.5516C559.188 83.5922 558.494 83.0707 557.045 83.0707C555.306 83.0707 555.063 84.1358 554.962 84.832H553.535L553.547 84.8271ZM559.156 86.5122C558.912 86.7041 558.529 86.8468 556.632 87.0878C555.882 87.1912 554.684 87.42 554.684 88.5712C554.684 89.5577 555.186 90.153 556.334 90.153C557.764 90.153 559.156 89.233 559.156 88.0103V86.5122Z" fill="white"/>
<path d="M565.257 83.3241V89.2478C565.257 89.9612 565.872 89.9612 566.182 89.9612H566.723V91.1641C566.165 91.2133 565.734 91.2846 565.572 91.2846C564.059 91.2846 563.73 90.431 563.73 89.3314V83.3241H562.487V82.0596H563.73V79.5135H565.257V82.0596H566.723V83.3266H565.247L565.257 83.3241Z" fill="white"/>
<path d="M568.332 80.4015V78.6598H569.867V80.4015H568.342H568.332ZM569.882 91.1664H568.347V82.0595H569.882V91.1664Z" fill="white"/>
<path d="M575.958 81.7939C578.871 81.7939 580.194 84.249 580.194 86.5983C580.194 88.9501 578.871 91.4052 575.958 91.4052C573.05 91.4052 571.727 88.9501 571.727 86.5983C571.727 84.249 573.055 81.7939 575.958 81.7939ZM575.958 90.0841C578.157 90.0841 578.605 87.8185 578.605 86.5983C578.605 85.3806 578.155 83.1174 575.958 83.1174C573.764 83.1174 573.311 85.3806 573.311 86.5983C573.336 87.8209 573.778 90.0841 575.968 90.0841H575.958Z" fill="white"/>
<path d="M589.439 91.1665H587.907V85.5577C587.907 83.971 587.451 83.1715 585.958 83.1715C585.085 83.1715 583.552 83.73 583.552 86.1998V91.1665H582.017V82.0596H583.464V83.3437H583.501C583.83 82.8591 584.684 81.7939 586.251 81.7939C587.661 81.7939 589.439 82.3696 589.439 84.9649V91.1665Z" fill="white"/>
</svg>
