<svg width="560" height="390" viewBox="0 0 560 390" fill="none" xmlns="http://www.w3.org/2000/svg">
<path d="M334.617 -165.529L187.595 169.149L225.982 190.34L221.559 200.668L322.037 255.082L303.904 295.042" stroke="url(#paint0_linear_34_4739)" stroke-width="2" stroke-linecap="round"/>
<g filter="url(#filter0_d_34_4739)">
<path d="M294.412 339.809L311.794 311.628C323.281 293.004 309.884 269 288.001 269C265.676 269 252.358 293.88 264.741 312.457L283.105 340.008C285.82 344.082 291.842 343.976 294.412 339.809Z" fill="#018CF1" fill-opacity="0.2"/>
<path d="M292.809 331.585L305.846 310.259C314.461 296.166 304.413 278 288.001 278C271.257 278 261.269 296.828 270.555 310.887L284.329 331.736C286.365 334.819 290.881 334.739 292.809 331.585Z" fill="url(#paint1_linear_34_4739)"/>
<circle cx="288" cy="336" r="1" fill="white"/>
<circle cx="288" cy="291" r="8" fill="white"/>
</g>
<circle cx="189.336" cy="168.744" r="25" transform="rotate(-11.5671 189.336 168.744)" fill="#018CF1" fill-opacity="0.1"/>
<circle cx="189.336" cy="168.744" r="18" transform="rotate(-11.5671 189.336 168.744)" fill="#018CF1" fill-opacity="0.4"/>
<g clip-path="url(#clip0_34_4739)">
<circle cx="189.778" cy="169.036" r="8" transform="rotate(-11.5671 189.778 169.036)" fill="#018CF1" stroke="#F6F6F6" stroke-width="1.5"/>
</g>
<defs>
<filter id="filter0_d_34_4739" x="213" y="260" width="132" height="132" filterUnits="userSpaceOnUse" color-interpolation-filters="sRGB">
<feFlood flood-opacity="0" result="BackgroundImageFix"/>
<feColorMatrix in="SourceAlpha" type="matrix" values="0 0 0 0 0 0 0 0 0 0 0 0 0 0 0 0 0 0 127 0" result="hardAlpha"/>
<feOffset dx="-9" dy="20"/>
<feGaussianBlur stdDeviation="13.5"/>
<feComposite in2="hardAlpha" operator="out"/>
<feColorMatrix type="matrix" values="0 0 0 0 0 0 0 0 0 0 0 0 0 0 0 0 0 0 0.25 0"/>
<feBlend mode="normal" in2="BackgroundImageFix" result="effect1_dropShadow_34_4739"/>
<feBlend mode="normal" in="SourceGraphic" in2="effect1_dropShadow_34_4739" result="shape"/>
</filter>
<linearGradient id="paint0_linear_34_4739" x1="285.803" y1="236.851" x2="315.778" y2="93.6156" gradientUnits="userSpaceOnUse">
<stop stop-color="#FFC846"/>
<stop offset="1" stop-color="#FFC334" stop-opacity="0"/>
</linearGradient>
<linearGradient id="paint1_linear_34_4739" x1="277.267" y1="292.311" x2="298.629" y2="319.186" gradientUnits="userSpaceOnUse">
<stop stop-color="#2B64A8"/>
<stop offset="1" stop-color="#499FEF"/>
</linearGradient>
<clipPath id="clip0_34_4739">
<rect width="18.75" height="18.75" fill="white" transform="translate(178.714 161.731) rotate(-11.5671)"/>
</clipPath>
</defs>
</svg>
